<svg width="617.15" height="527.61" version="1.1" viewBox="0 0 617.15 527.61" xml:space="preserve" xmlns="http://www.w3.org/2000/svg"><defs><clipPath id="clipPath18"><path d="m0 500h500v-500h-500z"/></clipPath><clipPath id="clipPath30"><path d="m18.86 447.99h462.86v-395.7h-462.86z"/></clipPath><clipPath id="clipPath46"><path d="m0 500h500v-500h-500z"/></clipPath><clipPath id="clipPath54"><path d="m32.008 237.87h0.1319v-0.133h-0.1319z"/></clipPath><clipPath id="clipPath70"><path d="m34.611 310.17h91.232v-92.732h-91.232z"/></clipPath><clipPath id="clipPath106"><path d="m37.273 295.26h71.839v-44.238h-71.839z"/></clipPath><clipPath id="clipPath322"><path d="m0 500h500v-500h-500z"/></clipPath><clipPath id="clipPath330"><path d="m273.76 204.98h74.618v-144.98h-74.618z"/></clipPath><clipPath id="clipPath350"><path d="m275.23 202.5c-0.312-1.178-0.204-3.093 0.192-4.237 5.008-14.778 11.375-25.95 17.185-37.591 3.456-6.913 2.173-6.828 3.895-9.952-0.203-0.139-0.107-0.395-0.32-0.525-0.846-3.359-1.435-6.73-2.28-10.09-0.813 4.035-1.905 8.539-3.831 12.177 0.385 2.354 0.76 4.74 0.525 7.116-0.225 2.375-1.146 4.773-2.964 6.314-0.942 0.791-2.216 1.272-3.489 1.358-1.894 0.14-3.563-1.241-3.842-3.113-0.267-1.777-0.513-3.938-1.005-5.415-1.509-4.559-2.761-6.633-2.761-6.795 0-4.462 2.761-3.735 4.773-21.679 1.562-13.974 19.56-23.21 29.362-33.3l10.444-32.85c12.124 4.858 23.722 11.075 34.85 18.298l-8.292 29.309 0.117 44.202c0.482 1.788 0.867 8.347 1.894 12.916 1.734 7.662-5.104 16.896-5.585 17.196-1.915 1.198-5.992 1.178-5.992 1.178s-3.97 4.568-7.566 6.013c-3.584 1.434-7.661 0.953-7.661 0.953s-4.548 3.829-9.096 5.51c-4.547 1.669-7.661-1.445-7.661-1.445l-4.473-6.966c-1.316-2.055-1.135-4.804 0.61-6.517 2.141-2.107 4.879-1.122 6.259-1.122 1.916 0 2.634 2.161 2.634 2.161s0.47-11.258 0-12.691l-0.011-0.011c-0.493-1.433-4.066-4.783-4.066-4.783l-11.964 15.837c-3.467 4.579-8.378 12.552-10.775 17.774-0.354 0.759-0.781 1.476-1.349 2.096-0.999 1.132-2.543 1.883-4.011 1.883-1.613 0-3.136-0.906-3.746-3.209"/></clipPath><clipPath id="clipPath366"><path d="m338.47 187.4h10.198v-25.102h-10.198z"/></clipPath><clipPath id="clipPath390"><path d="m323.64 193.58h10.578v-27.6h-10.578z"/></clipPath><clipPath id="clipPath414"><path d="m278.29 195.87h33.774v-42.197h-33.774z"/></clipPath><clipPath id="clipPath438"><path d="m303.96 200.13h20.048v-8.793h-20.048z"/></clipPath><clipPath id="clipPath494"><path d="m278.98 207.74h70.951v-98.152h-70.951z"/></clipPath><clipPath id="clipPath546"><path d="m0 500h500v-500h-500z"/></clipPath><clipPath id="clipPath630"><path d="m168.44 200.72h72.044v-139.31h-72.044z"/></clipPath><clipPath id="clipPath650"><path d="m198.92 202.18c-0.952-2.429-3.809-7.191-3.809-7.191l-5.297-14.488c0.203-3.274-1.68-19.454-1.68-19.454l-1.904 0.867-3.071 9.502 2.332 9.727s5.073 5.597 4.227 8.881c-0.845 3.274-5.179 2.322-5.179 2.322l-8.668-10.358h-2.546l-6.024-7.619c-1.627-4.922-2.451-10.048-2.451-15.194 0-3.371 0.354-6.763 1.07-10.091l1.381-6.431v-41.56s-4.12-6.657-4.12-7.287c0-0.289-1.702-5.544-4.077-12.092 10.368-6.1 19.303-10.819 25.628-13.312 2.974-1.176 5.981-2.3 8.999-3.37 3.798 10.668 8.239 22.086 10.69 24.751 4.857 5.285 14.37 15.44 14.37 15.44s10.818 17.367 12.081 23.145c1.049 4.741 3.585 13.343 4.462 16.297 0.204 0.663 0.289 1.369 0.247 2.064-0.076 1.563-0.226 4.591-0.226 7.266 0 3.81 2.258 7.619 1.841 9.588-0.428 1.98-3.242 1.691-3.242 1.691-9.449-0.556-10.722-15.366-10.722-15.366l-3.381-10.144-1.06 15.259 0.107 19.667s2.857 18.823 1.584 21.776c-1.263 2.964-3.906 2.856-3.906 2.856-5.5 1.381-5.821-6.548-5.821-6.548l-4.644-16.179-1.905-17.452-1.583 0.844s-0.749 18.512-0.428 18.823c0.321 0.321 2.226 12.798 2.226 12.798s1.048 2.322 2.321 5.285c1.263 2.964 0 5.287 0 5.287-0.953 1.949-2.352 2.674-3.714 2.674-1.814 0-3.564-1.287-4.108-2.674"/></clipPath><clipPath id="clipPath678"><path d="m163.02 208.78h74.468v-81.104h-74.468z"/></clipPath><clipPath id="clipPath694"><path d="m167.74 154.52h42.892v-13.938h-42.892z"/></clipPath><clipPath id="clipPath722"><path d="m0 500h500v-500h-500z"/></clipPath><clipPath id="clipPath802"><path d="m0 500h500v-500h-500z"/></clipPath><clipPath id="clipPath814"><path d="m404.88 308.26h72.106v-66.074h-72.106z"/></clipPath><clipPath id="clipPath890"><path d="m0 500h500v-500h-500z"/></clipPath><clipPath id="clipPath898"><path d="m119.41 447.99h305.23v-120.13h-305.23z"/></clipPath><clipPath id="clipPath968"><path d="m166.89 347.9h35.019v-1.841h-35.019z"/></clipPath><clipPath id="clipPath1004"><path d="m187.5 316.53h19.995v-1.509h-19.995z"/></clipPath><clipPath id="clipPath1020"><path d="m170.79 366.19h27.86v-2.05h-27.86z"/></clipPath><clipPath id="clipPath1044"><path d="m209.45 360.12h6.844v-2.471h-6.844z"/></clipPath><clipPath id="clipPath1060"><path d="m210.36 354.02h6.717v-2.384h-6.717z"/></clipPath><clipPath id="clipPath1076"><path d="m211.25 348.13h6.594v-2.302h-6.594z"/></clipPath><clipPath id="clipPath1092"><path d="m212.1 342.44h6.476v-2.224h-6.476z"/></clipPath><clipPath id="clipPath1108"><path d="m212.92 336.95h6.362v-2.149h-6.362z"/></clipPath><clipPath id="clipPath1124"><path d="m213.72 331.64h6.251v-2.078h-6.251z"/></clipPath><clipPath id="clipPath1140"><path d="m214.5 326.5h6.144v-2.011h-6.144z"/></clipPath><clipPath id="clipPath1156"><path d="m215.24 321.53h6.042v-1.948h-6.042z"/></clipPath><clipPath id="clipPath1172"><path d="m215.96 316.72h5.942v-1.886h-5.942z"/></clipPath><clipPath id="clipPath1188"><path d="m208.5 366.44h6.977v-2.562h-6.977z"/></clipPath><clipPath id="clipPath1204"><path d="m207.51 373.01h7.114v-2.659h-7.114z"/></clipPath><clipPath id="clipPath1220"><path d="m216.66 312.05h5.846v-1.829h-5.846z"/></clipPath><clipPath id="clipPath1244"><path d="m265.65 326.3h19.233v-1.609h-19.233z"/></clipPath><clipPath id="clipPath1264"><path d="m226.16 331.43h8.054v-1.662h-8.054z"/></clipPath><clipPath id="clipPath1308"><path d="m341.33 366.19h20.949v-2.049h-20.949z"/></clipPath><clipPath id="clipPath1340"><path d="m221.6 372.74h46.211v-2.128h-46.211z"/></clipPath><clipPath id="clipPath1356"><path d="m296.76 316.53h7.29v-1.51h-7.29z"/></clipPath><clipPath id="clipPath1372"><path d="m236.52 321.34h9.022v-1.558h-9.022z"/></clipPath><clipPath id="clipPath1388"><path d="m312 342.22h10.298v-1.779h-10.298z"/></clipPath><clipPath id="clipPath1404"><path d="m337.92 336.74h8.755v-1.719h-8.755z"/></clipPath><clipPath id="clipPath1420"><path d="m247.01 353.78h9.217v-1.907h-9.217z"/></clipPath><clipPath id="clipPath1448"><path d="m100.38 393.56h59.458v-72.027h-59.458z"/></clipPath><clipPath id="clipPath1464"><path d="m145.85 393.56h110.38v-92.485h-110.38z"/></clipPath><clipPath id="clipPath1480"><path d="m196.5 394.01h100.02v-92.939h-100.02z"/></clipPath><clipPath id="clipPath1496"><path d="m297.16 393.56h105.42v-92.485h-105.42z"/></clipPath><clipPath id="clipPath1512"><path d="m0 500h500v-500h-500z"/></clipPath><clipPath id="clipPath1664"><path d="m0 500h500v-500h-500z"/></clipPath><clipPath id="clipPath1676"><path d="m402.58 182.88c0-21.38 9.116-39.003 20.865-41.497 0.932-0.192 1.895-0.299 2.857-0.299 10.765 0 19.861 12.626 22.761 29.928 0.631 3.757 0.973 7.747 0.973 11.868 0 23.081-10.625 31.245-23.734 31.245-13.097 0-23.722-8.164-23.722-31.245"/></clipPath><clipPath id="clipPath1688"><path d="m429.64 221.33h28.75v-75.415h-28.75z"/></clipPath><clipPath id="clipPath1704"><path d="m0 500h500v-500h-500z"/></clipPath></defs><g transform="matrix(1.3333 0 0 -1.3333 -25.147 597.33)"><g clip-path="url(#clipPath18)"><g transform="translate(481.72 254.17)"><path d="m0 0c0-9.61-1.05-19.18-3.33-28.479-0.75-3.061-1.649-6.111-2.68-9.111-0.3-0.86-0.599-1.72-0.92-2.57-0.259-0.7-0.53-1.4-0.799-2.09-0.081-0.189-0.151-0.38-0.231-0.57-0.29-0.72-0.58-1.44-0.89-2.15-0.049-0.11-0.1-0.23-0.15-0.35-0.3-0.7-0.609-1.4-0.92-2.09-0.14-0.31-0.28-0.61-0.42-0.91-0.28-0.619-0.57-1.23-0.87-1.84-0.31-0.65-0.63-1.29-0.95-1.93-0.119-0.23-0.23-0.46-0.35-0.68-0.28-0.55-0.57-1.1-0.849-1.65-0.231-0.43-0.46-0.85-0.691-1.269-1.059-1.961-2.17-3.891-3.33-5.801-0.47-0.78-0.95-1.56-1.439-2.33-0.111-0.19-0.231-0.38-0.351-0.57-0.559-0.88-1.13-1.76-1.71-2.64-0.47-0.71-0.939-1.42-1.43-2.13-0.419-0.62-0.839-1.23-1.27-1.85-0.09-0.13-0.18-0.26-0.279-0.39-0.441-0.64-0.901-1.28-1.351-1.92-0.56-0.79-1.13-1.56-1.7-2.34-0.119-0.16-0.23-0.319-0.35-0.47-0.65-0.89-1.32-1.77-1.979-2.64-0.401-0.52-0.801-1.05-1.211-1.56-0.72-0.95-1.46-1.89-2.21-2.83-0.71-0.9-1.43-1.79-2.159-2.68-0.08-0.099-0.16-0.19-0.241-0.29-0.719-0.89-1.44-1.77-2.179-2.65-0.211-0.27-0.441-0.54-0.66-0.8-0.67-0.81-1.351-1.62-2.031-2.42-1.96-2.32-3.94-4.62-5.929-6.9-4.051-4.66-8.191-9.289-12.411-13.89-3.509-3.8-7.07-7.58-10.7-11.29-17.42-17.89-36.28-34.58-56.79-47.88-2.55-1.65-5.12-3.26-7.719-4.79-0.951-0.56-1.901-1.12-2.851-1.67-0.159-0.09-0.33-0.19-0.489-0.28-0.981-0.56-1.96-1.11-2.951-1.65-1.009-0.56-2.02-1.11-3.04-1.64-0.46-0.239-0.919-0.48-1.379-0.72-1.991-1.04-4-2.04-6.031-3-1.09-0.519-2.179-1.019-3.28-1.51-1.01-0.46-2.029-0.91-3.05-1.35-0.42-0.18-0.83-0.36-1.25-0.53-0.929-0.4-1.87-0.78-2.809-1.16-1.811-0.73-3.641-1.429-5.481-2.09-0.7-0.26-1.41-0.51-2.12-0.76-0.399-0.14-0.8-0.27-1.2-0.41-0.659-0.22-1.319-0.44-1.98-0.65-0.57-0.19-1.15-0.37-1.719-0.55-0.021-9e-3 -0.04-9e-3 -0.061-0.02-1.13-0.35-2.26-0.69-3.39-1.02-1.79-0.52-3.58-1-5.379-1.46-1.191-0.3-2.38-0.58-3.581-0.85-1.129-0.26-2.259-0.5-3.4-0.74-0.09-0.02-0.18-0.04-0.269-0.05-1.181-0.24-2.371-0.47-3.561-0.68-0.609-0.11-1.21-0.21-1.819-0.31-0.611-0.1-1.221-0.2-1.841-0.29-0.55-0.089-1.11-0.17-1.659-0.24-0.67-0.099-1.351-0.19-2.021-0.28-7.11-0.91-14.24-1.29-21.37-1.21-0.43 0-0.85 0.01-1.279 0.02-6.461 0.121-12.921 0.621-19.351 1.45-0.47 0.06-0.94 0.12-1.41 0.19-0.81 0.11-1.62 0.22-2.43 0.34-0.63 0.1-1.26 0.2-1.89 0.3-2.67 0.42-5.32 0.9-7.97 1.44-0.59 0.11-1.17 0.23-1.75 0.36-1.78 0.37-3.57 0.77-5.34 1.19-1.19 0.28-2.37 0.57-3.55 0.87-0.59 0.15-1.18 0.3-1.77 0.46-0.59 0.15-1.18 0.311-1.77 0.47-2.35 0.63-4.69 1.31-7.02 2.02-2.71 0.821-5.4 1.69-8.08 2.61-0.97 0.33-1.95 0.671-2.92 1.01-3.01 1.07-6.02 2.201-8.989 3.37-0.531 0.21-1.071 0.43-1.631 0.66-0.43 0.18-0.86 0.37-1.31 0.57-0.29 0.13-0.58 0.26-0.88 0.4-1.94 0.88-4.05 1.911-6.32 3.07-0.38 0.2-0.77 0.4-1.16 0.6-1.39 0.73-2.84 1.5-4.33 2.32-3.13 1.72-6.48 3.62-10 5.69-40.01 23.54-101.26 67.72-115.64 84.47-0.729 0.85-1.44 1.71-2.15 2.58-0.55 0.681-1.1 1.37-1.63 2.07-0.49 0.63-0.97 1.26-1.44 1.91-0.42 0.56-0.83 1.13-1.23 1.71-0.38 0.531-0.76 1.07-1.13 1.61-0.02 0.04-0.05 0.08-0.08 0.12-0.45 0.67-0.9 1.34-1.34 2.02-0.42 0.65-0.84 1.3-1.24 1.96-0.2 0.31-0.39 0.63-0.58 0.95-0.45 0.74-0.89 1.48-1.32 2.22 0 0.01 0 0.01-0.01 0.02-0.46 0.82-0.92 1.64-1.37 2.47-0.78 1.45-1.53 2.911-2.23 4.39-0.18 0.38-0.36 0.771-0.54 1.15-1.42 3.04-2.67 6.14-3.74 9.29-0.39 1.1-0.74 2.21-1.08 3.32-0.43 1.43-0.82 2.87-1.18 4.31-0.07 0.29-0.14 0.57-0.2 0.86-0.18 0.75-0.35 1.51-0.5 2.27-0.23 1.06-0.42 2.12-0.6 3.19-0.04 0.26-0.09 0.52-0.12 0.78-0.09 0.55-0.17 1.101-0.24 1.66-0.09 0.66-0.17 1.33-0.24 1.99-0.03 0.23-0.05 0.451-0.07 0.67-0.06 0.57-0.1 1.14-0.15 1.7 0 0.05 0 0.1-0.01 0.14-0.05 0.68-0.09 1.35-0.11 2.02-0.01 0.07-0.01 0.131-0.01 0.19-0.03 0.71-0.05 1.42-0.06 2.13-4e-3 0.265 4e-3 0.528 2e-3 0.793-2e-3 0.416-3e-3 0.832 3e-3 1.248 0.014 1.044 0.045 2.087 0.105 3.129 0.04 0.681 0.09 1.36 0.15 2.03 0.12 1.34 0.28 2.68 0.48 4.01 0.1 0.68 0.21 1.36 0.34 2.03 0.24 1.35 0.53 2.7 0.87 4.05 0.9 3.55 2.05 6.97 3.45 10.25 1.06 2.53 2.26 4.96 3.59 7.34 0.1 0.2 0.22 0.41 0.34 0.61 5.39 9.49 12.72 17.91 20.98 25.71 0.88 0.84 1.77 1.66 2.68 2.47 0.95 0.87 1.91 1.72 2.881 2.58 0.059 0.05 0.119 0.11 0.179 0.16 1.55 1.36 3.12 2.7 4.71 4.03 2.45 2.05 4.94 4.06 7.45 6.06 0.08 0.07 0.17 0.13 0.25 0.2 2.15 1.7 4.32 3.39 6.48 5.07 3.4 2.63 6.81 5.25 10.15 7.86 0.89 0.69 1.77 1.38 2.64 2.07 0.97 0.76 1.92 1.52 2.87 2.28 8.96 7.18 16.68 14.82 23.86 22.64 1.39 1.52 2.77 3.05 4.14 4.59 0.65 0.74 1.3 1.47 1.94 2.21 9.13 10.4 17.62 20.92 27.07 30.85 2.25 2.37 4.55 4.7 6.92 6.99 2 1.91 4.03 3.79 6.14 5.63 2.41 2.12 4.89 4.19 7.49 6.19 3.55 2.76 7.29 5.41 11.29 7.94 0.98 0.63 1.95 1.24 2.93 1.84 99.71 61.97 173.1 41.74 222.06 0 3.69-3.13 7.25-6.4 10.66-9.78 2.08-2.01 4.09-4.09 6.04-6.19 0.221-0.22 0.42-0.45 0.63-0.69 1.37-1.46 2.7-2.93 4-4.41 0.391-0.44 0.77-0.88 1.15-1.32 0.571-0.66 1.14-1.32 1.701-1.99 0.689-0.81 1.37-1.63 2.049-2.45 0.43-0.52 0.85-1.04 1.27-1.56 2.73-3.36 5.33-6.77 7.81-10.2 0.5-0.68 0.991-1.37 1.48-2.06 3.42-4.8 6.6-9.65 9.551-14.47 0.42-0.69 0.84-1.38 1.25-2.06 0.42-0.69 0.83-1.38 1.229-2.07 0.401-0.68 0.8-1.37 1.191-2.05 0.399-0.69 0.79-1.37 1.17-2.05 0.379-0.68 0.759-1.37 1.139-2.05 0.39-0.68 0.76-1.36 1.111-2.03 0.37-0.68 0.729-1.36 1.089-2.03 0.361-0.67 0.71-1.35 1.06-2.02 0.341-0.67 0.69-1.34 1.03-2 0.34-0.67 0.67-1.34 1-2 1.311-2.64 2.55-5.25 3.731-7.82 0.58-1.3 1.159-2.59 1.71-3.86 2.489-5.72 4.62-11.19 6.359-16.28 0.011-0.02 0.021-0.05 0.021-0.07 0.169-0.49 0.33-0.97 0.49-1.45 0.17-0.5 0.329-0.99 0.489-1.48 0.12-0.38 0.25-0.75 0.36-1.13 0.18-0.56 0.361-1.12 0.531-1.69 0.189-0.61 0.37-1.22 0.54-1.83 0.33-1.12 0.649-2.24 0.949-3.37 0.261-0.95 0.511-1.9 0.75-2.86 0.051-0.18 0.1-0.35 0.141-0.53 0.04-0.15 0.069-0.3 0.109-0.45 0.141-0.56 0.28-1.12 0.41-1.69 0.36-1.49 0.69-2.99 1-4.49 0.17-0.82 0.34-1.63 0.49-2.45 0.031-0.15 0.06-0.3 0.09-0.46 0.151-0.77 0.29-1.54 0.42-2.31 0.181-1.03 0.351-2.07 0.5-3.1 0.13-0.78 0.24-1.57 0.351-2.36 9e-3 -0.11 0.029-0.23 0.049-0.35 0.071-0.52 0.14-1.05 0.201-1.58 0.059-0.44 0.109-0.88 0.159-1.31 0.18-1.59 0.341-3.17 0.471-4.76 0.029-0.36 0.059-0.72 0.089-1.08 0.04-0.6 0.08-1.21 0.12-1.81 0.041-0.67 0.081-1.34 0.11-2.02 0.03-0.52 0.051-1.03 0.07-1.55 0.03-0.76 0.05-1.53 0.061-2.29 0.019-0.88 0.029-1.77 0.029-2.66" fill="#5ae4a7"/></g><g clip-path="url(#clipPath30)" opacity=".7"><g transform="translate(481.72 254.17)"><path d="m0 0c0-9.61-1.05-19.18-3.33-28.479-0.75-3.061-1.649-6.111-2.68-9.111-0.3-0.86-0.599-1.72-0.92-2.57-0.259-0.7-0.53-1.4-0.799-2.09-0.081-0.189-0.151-0.38-0.231-0.57-0.29-0.72-0.58-1.44-0.89-2.15-0.049-0.11-0.1-0.23-0.15-0.35-0.3-0.7-0.609-1.4-0.92-2.09-0.14-0.31-0.28-0.61-0.42-0.91-0.28-0.619-0.57-1.23-0.87-1.84-0.31-0.65-0.63-1.29-0.95-1.93-0.119-0.23-0.23-0.46-0.35-0.68-0.28-0.55-0.57-1.1-0.849-1.65-0.231-0.43-0.46-0.85-0.691-1.269-1.059-1.961-2.17-3.891-3.33-5.801-0.47-0.78-0.95-1.56-1.439-2.33-0.111-0.19-0.231-0.38-0.351-0.57-0.559-0.88-1.13-1.76-1.71-2.64-0.47-0.71-0.939-1.42-1.43-2.13-0.419-0.62-0.839-1.23-1.27-1.85-0.09-0.13-0.18-0.26-0.279-0.39-0.441-0.64-0.901-1.28-1.351-1.92-0.56-0.79-1.13-1.56-1.7-2.34-0.119-0.16-0.23-0.319-0.35-0.47-0.65-0.89-1.32-1.77-1.979-2.64-0.401-0.52-0.801-1.05-1.211-1.56-0.72-0.95-1.46-1.89-2.21-2.83-0.71-0.9-1.43-1.79-2.159-2.68-0.08-0.099-0.16-0.19-0.241-0.29-0.719-0.89-1.44-1.77-2.179-2.65-0.211-0.27-0.441-0.54-0.66-0.8-0.67-0.81-1.351-1.62-2.031-2.42-1.96-2.32-3.94-4.62-5.929-6.9-4.051-4.66-8.191-9.289-12.411-13.89-3.509-3.8-7.07-7.58-10.7-11.29-17.42-17.89-36.28-34.58-56.79-47.88-2.55-1.65-5.12-3.26-7.719-4.79-0.951-0.56-1.901-1.12-2.851-1.67-0.159-0.09-0.33-0.19-0.489-0.28-0.981-0.56-1.96-1.11-2.951-1.65-1.009-0.56-2.02-1.11-3.04-1.64-0.46-0.239-0.919-0.48-1.379-0.72-1.991-1.04-4-2.04-6.031-3-1.09-0.519-2.179-1.019-3.28-1.51-1.01-0.46-2.029-0.91-3.05-1.35-0.42-0.18-0.83-0.36-1.25-0.53-0.929-0.4-1.87-0.78-2.809-1.16-1.811-0.73-3.641-1.429-5.481-2.09-0.7-0.26-1.41-0.51-2.12-0.76-0.399-0.14-0.8-0.27-1.2-0.41-0.659-0.22-1.319-0.44-1.98-0.65-0.57-0.19-1.15-0.37-1.719-0.55-0.021-9e-3 -0.04-9e-3 -0.061-0.02-1.13-0.35-2.26-0.69-3.39-1.02-1.79-0.52-3.58-1-5.379-1.46-1.191-0.3-2.38-0.58-3.581-0.85-1.129-0.26-2.259-0.5-3.4-0.74-0.09-0.02-0.18-0.04-0.269-0.05-1.181-0.24-2.371-0.47-3.561-0.68-0.609-0.11-1.21-0.21-1.819-0.31-0.611-0.1-1.221-0.2-1.841-0.29-0.55-0.089-1.11-0.17-1.659-0.24-0.67-0.099-1.351-0.19-2.021-0.28-7.11-0.91-14.24-1.29-21.37-1.21-0.43 0-0.85 0.01-1.279 0.02-6.461 0.121-12.921 0.621-19.351 1.45-0.47 0.06-0.94 0.12-1.41 0.19-0.81 0.11-1.62 0.22-2.43 0.34-0.63 0.1-1.259 0.2-1.89 0.3-2.67 0.42-5.32 0.9-7.97 1.44-0.59 0.11-1.17 0.23-1.75 0.36-1.78 0.37-3.57 0.77-5.34 1.19-1.19 0.28-2.37 0.57-3.55 0.87-0.59 0.15-1.18 0.3-1.77 0.46-0.59 0.15-1.18 0.311-1.77 0.47-2.35 0.63-4.69 1.31-7.02 2.02-2.71 0.821-5.4 1.69-8.08 2.61-0.97 0.33-1.95 0.671-2.92 1.01-3.01 1.07-6.02 2.201-8.989 3.37-0.531 0.21-1.071 0.43-1.631 0.66-0.43 0.18-0.86 0.37-1.31 0.57-0.29 0.13-0.58 0.26-0.88 0.4-1.94 0.88-4.05 1.911-6.32 3.07-0.38 0.2-0.77 0.4-1.16 0.6-1.39 0.73-2.84 1.5-4.33 2.32-3.13 1.72-6.48 3.62-10 5.69-40.01 23.54-101.26 67.72-115.64 84.47-0.729 0.85-1.439 1.71-2.15 2.58-0.55 0.681-1.1 1.37-1.63 2.07-0.49 0.63-0.97 1.26-1.44 1.91-0.42 0.56-0.83 1.13-1.23 1.71-0.38 0.531-0.76 1.07-1.13 1.61-0.02 0.04-0.05 0.08-0.08 0.12-0.45 0.67-0.9 1.34-1.34 2.02-0.42 0.65-0.84 1.3-1.24 1.96-0.199 0.31-0.39 0.63-0.58 0.95-0.45 0.74-0.89 1.48-1.32 2.22 0 0.01 0 0.01-0.01 0.02-0.46 0.82-0.92 1.64-1.37 2.47-0.78 1.45-1.53 2.911-2.23 4.39-0.18 0.38-0.36 0.771-0.54 1.15-1.42 3.04-2.67 6.14-3.74 9.29-0.39 1.1-0.74 2.21-1.08 3.32-0.43 1.43-0.82 2.87-1.18 4.31-0.07 0.29-0.14 0.57-0.2 0.86-0.18 0.75-0.35 1.51-0.5 2.27-0.23 1.06-0.43 2.12-0.6 3.19-0.04 0.26-0.09 0.52-0.12 0.78-0.09 0.55-0.17 1.101-0.24 1.66-0.09 0.66-0.17 1.33-0.239 1.99-0.031 0.23-0.051 0.451-0.071 0.67-0.06 0.57-0.1 1.14-0.15 1.7 0 0.05 0 0.1-0.01 0.14-0.05 0.68-0.09 1.35-0.11 2.02-0.01 0.07-0.01 0.131-0.01 0.19-0.03 0.71-0.05 1.42-0.06 2.13-0.03 1.73 0.01 3.45 0.11 5.17 0.04 0.681 0.09 1.36 0.15 2.03 0.12 1.34 0.28 2.68 0.48 4.01 0.1 0.68 0.21 1.36 0.34 2.03 0.24 1.35 0.53 2.7 0.87 4.05 0.9 3.55 2.05 6.97 3.45 10.25 1.06 2.53 2.261 4.96 3.59 7.34 0.1 0.2 0.22 0.41 0.34 0.61 5.39 9.49 12.72 17.91 20.98 25.71 0.47 0.45 0.94 0.89 1.42 1.33l1.26 1.14c0.95 0.87 1.91 1.72 2.881 2.58 0.059 0.05 0.119 0.11 0.179 0.16 1.55 1.36 3.12 2.7 4.71 4.03 2.45 2.05 4.94 4.06 7.45 6.06 0.08 0.07 0.17 0.13 0.25 0.2 2.15 1.7 4.32 3.39 6.48 5.07 1.09 0.84 2.17 1.68 3.26 2.52 2.31 1.78 4.62 3.56 6.89 5.34 0.89 0.69 1.77 1.38 2.64 2.07 0.97 0.76 1.92 1.52 2.87 2.28 8.96 7.18 16.68 14.82 23.86 22.64 1.39 1.52 2.77 3.05 4.14 4.59 0.65 0.74 1.3 1.47 1.94 2.21 9.13 10.4 17.621 20.92 27.07 30.85 2.25 2.37 4.551 4.7 6.92 6.99 2 1.91 4.03 3.79 6.14 5.63 2.41 2.12 4.89 4.19 7.491 6.19 3.549 2.76 7.289 5.41 11.289 7.94 0.98 0.63 1.95 1.24 2.93 1.84 99.71 61.97 173.1 41.74 222.06 0 3.69-3.13 7.25-6.4 10.66-9.78 2.08-2.01 4.09-4.09 6.04-6.19 0.221-0.22 0.42-0.45 0.63-0.69 1.37-1.46 2.7-2.93 4-4.41 0.391-0.44 0.77-0.88 1.15-1.32 0.571-0.66 1.14-1.32 1.701-1.99 0.689-0.81 1.37-1.63 2.049-2.45 0.43-0.52 0.85-1.04 1.27-1.56 2.73-3.36 5.33-6.77 7.81-10.2 0.5-0.68 0.991-1.37 1.48-2.06 3.42-4.8 6.6-9.65 9.551-14.47 0.42-0.69 0.84-1.38 1.25-2.06 0.42-0.69 0.83-1.38 1.229-2.07 0.401-0.68 0.8-1.37 1.191-2.05 0.399-0.69 0.79-1.37 1.17-2.05 0.379-0.68 0.759-1.37 1.139-2.05 0.39-0.68 0.76-1.36 1.111-2.03 0.37-0.68 0.729-1.36 1.089-2.03 0.361-0.67 0.71-1.35 1.06-2.02 0.341-0.67 0.69-1.34 1.03-2 0.34-0.67 0.67-1.34 1-2 1.321-2.64 2.561-5.25 3.731-7.82 0.58-1.3 1.159-2.59 1.71-3.86 2.489-5.72 4.62-11.19 6.359-16.28 0.011-0.02 0.021-0.05 0.021-0.07 0.169-0.49 0.33-0.97 0.49-1.45 0.17-0.5 0.329-0.99 0.489-1.48 0.12-0.38 0.25-0.75 0.36-1.13 0.18-0.56 0.361-1.12 0.531-1.69 0.189-0.61 0.37-1.22 0.54-1.83 0.33-1.12 0.649-2.24 0.949-3.37 0.261-0.95 0.511-1.9 0.75-2.86 0.051-0.18 0.1-0.35 0.141-0.53 0.04-0.15 0.069-0.3 0.109-0.45 0.141-0.56 0.28-1.12 0.41-1.69 0.36-1.49 0.69-2.99 1-4.49 0.17-0.82 0.34-1.63 0.49-2.45 0.031-0.15 0.06-0.3 0.09-0.46 0.151-0.77 0.29-1.54 0.42-2.31 0.181-1.03 0.351-2.07 0.5-3.1 0.13-0.78 0.24-1.57 0.351-2.36 9e-3 -0.11 0.029-0.23 0.049-0.35 0.071-0.52 0.14-1.05 0.201-1.58 0.059-0.44 0.109-0.88 0.159-1.31 0.18-1.59 0.341-3.17 0.471-4.76 0.029-0.36 0.059-0.72 0.089-1.08 0.04-0.6 0.08-1.21 0.12-1.81 0.041-0.67 0.081-1.34 0.11-2.02 0.03-0.52 0.051-1.03 0.07-1.55 0.03-0.76 0.05-1.53 0.061-2.29 0.019-0.88 0.029-1.77 0.029-2.66" fill="#fff"/></g></g></g><g clip-path="url(#clipPath46)"><g clip-path="url(#clipPath54)" opacity=".2"><g transform="translate(32.14 237.74)"><path d="m0 0c-0.2 0.13-0.15 0.22 0 0" fill="#1a2e35"/></g></g><g clip-path="url(#clipPath70)" opacity=".2"><g transform="translate(125.67 246.56)"><path d="m0 0c-1.02-6.8-6.04-12.329-12.57-14.47l-2.48-0.809c-8.92-12.63-24.56-18.021-37.89-10.191l-3.9 2.29-10.92 12.981c-0.04-0.011-0.09-0.021-0.13-0.03-3.46-0.72-7.37-0.191-9.93 2.25-0.41-2.14-3.2-3.401-5.07-2.3-1.87 1.099-2.11 4.16-0.44 5.55-2.2-1.941-5.6-1.05-7.72 1.07-0.09 5.79 0.52 11.579 1.95 17.289 0.9 3.551 2.05 6.971 3.45 10.25 1.06 2.531 2.26 4.96 3.59 7.341 0.1 0.199 0.22 0.409 0.34 0.61 1.97 3.48 4.2 6.81 6.65 10.02l1.26 1.139c0.95 0.87 1.91 1.72 2.88 2.58 0.06 0.051 0.12 0.111 0.18 0.16 1.55 1.36 3.12 2.701 4.71 4.03 2.45 2.051 4.94 4.06 7.45 6.06 0.08 0.071 0.17 0.13 0.25 0.201 2.15 1.7 4.32 3.39 6.48 5.069 1.09 0.841 2.17 1.681 3.26 2.52 0.66-0.08 1.3-0.23 1.92-0.449 2.67-0.931 3.13-3.381 4.98-5.06 2.46-2.25 4.82 1.529 8.61 1.409 11.65-0.36 7.13-12.31 12.82-10.81 24.57 6.481 20.44-24.95 9.76-31.849 6.3-5.221 11.73-8.67 10.51-16.851"/></g></g><g transform="translate(114.28 257.61)"><path d="m0 0c0-22.603-18.553-40.926-41.439-40.926s-41.439 18.323-41.439 40.926 18.553 40.926 41.439 40.926 41.439-18.323 41.439-40.926" fill="#fff"/></g><g transform="translate(114.28 257.61)"><path d="m0 0c0-22.603-18.553-40.926-41.439-40.926s-41.439 18.323-41.439 40.926 18.553 40.926 41.439 40.926 41.439-18.323 41.439-40.926z" fill="none" stroke="#1a2e35" stroke-miterlimit="10"/></g><g transform="translate(110.62 259.27)"><path d="m0 0c0-20.609-16.917-37.316-37.784-37.316s-37.783 16.707-37.783 37.316 16.916 37.316 37.783 37.316 37.784-16.707 37.784-37.316" fill="#1a2e35"/></g><g transform="translate(110.62 259.27)"><path d="m0 0c0-20.609-16.917-37.316-37.784-37.316s-37.783 16.707-37.783 37.316 16.916 37.316 37.783 37.316 37.784-16.707 37.784-37.316z" fill="none" stroke="#fff" stroke-miterlimit="10"/></g><g transform="translate(32.236 244.56)"><path d="m0 0c-2.379-1.477-3.061-6.451-1.184-8.606 1.877-2.143 5.458-0.488 6.191 2.869 0.347-0.94 1.451-1.092 2.02-0.282 0.401 0.581 0.418 1.485 0.139 2.105-0.179 0.15-0.114 0.259 0 0 1.217-0.968 3.315 0.087 3.608 2.154-0.891-5.497 4.106-10.297 7.79-7.501-1.087-2.336 0.337-5.41 2.242-5.999 1.896-0.591 3.942 0.531 5.762 1.777 1.821 1.246 3.682 2.669 5.672 2.755 1.736 0.083 3.343-0.895 4.994-1.477 5.261-1.831 11.417 0.596 15.441 6.11 2.659-4.55 9.209-2.875 10.966 2.791 0.369-2.652 2.185-4.672 4.209-4.698 2.025-0.026 4.067 1.94 4.76 4.576v-0.035c0.045-2.51 2.284-3.739 3.884-2.124 2.045 2.059 3.312 5.842 2.305 8.871 2.726 0.11 5.363 3.27 5.776 6.931 0.421 3.662-1.428 7.335-4.057 8.054 4.511 1.874 8.047 8.019 8.216 14.293 0.16 6.263-3.057 12.087-7.488 13.553-1.688 0.556-3.661 0.447-5.087-1.064-0.525 3.569-2.146 6.758-4.533 8.36-3.803 2.569-9.093 0.81-11.923-3.973 1.38 2.47 1.473 6.042 0.217 8.386-1.255 2.331-3.753 3.266-5.872 2.164-0.456 3.828-3.412 6.553-6.304 5.809-2.883-0.744-5.22-4.836-4.973-8.711-0.269 3.121-3.951 3.891-5.279 1.274 0.113-0.236-0.056-0.096 0 0-1.837 3.86-5.578 5.842-9.049 4.715-3.691-1.211-6.791-5.847-7.265-10.901-2.545 2.322-6.261 2.221-8.994-0.25-2.733-2.46-4.308-7.142-3.831-11.327-2.872 2.835-7.704 1.288-9.673-3.094-1.969-4.381-0.612-10.586 2.715-12.42-2.295-0.349-4.312-3.39-4.314-6.471 7e-3 -3.091 2.029-5.723 4.328-5.64-2.319-0.2-4.503-2.939-4.842-6.051-0.338-3.124 1.211-6.236 3.433-6.923" fill="#5ae4a7"/></g><g clip-path="url(#clipPath106)" opacity=".2"><g transform="translate(70.332 258.9)"><path d="m0 0c-1.158 0.971-2.635 1.442-4.047 0.997-1.413-0.444-2.71-1.907-3.032-3.716-0.322-1.808 0.515-3.805 1.901-4.149 1.686-0.419 3.416 1.467 5.137 1.262 0.615-0.074 1.175-0.412 1.773-0.58 2.466-0.693 4.964 1.524 7.06 3.608 0.737 0.733 1.491 1.49 1.993 2.493 0.502 1.002 0.705 2.321 0.268 3.288-0.609 1.348-2.108 1.46-3.362 1.201-2.516-0.52-4.962-1.959-6.965-4.099 0.073 0.505 0.147 1.01 0.221 1.515z" fill="#fff"/></g><g transform="translate(106.45 263.83)"><path d="m0 0c-0.663 0.56-1.346 1.13-2.142 1.321-0.795 0.191-1.74-0.084-2.261-0.941-0.714-1.174-0.307-2.918 0.557-3.76s2.028-1.02 3.137-1.172c1.14-0.156 2.581-0.12 3.17 1.202 0.429 0.963 0.12 2.183-0.482 2.881-0.601 0.698-1.426 0.997-2.223 1.277z" fill="#fff"/></g><g transform="translate(49.907 284.26)"><path d="m0 0c-2.32-1.365-4.144-4.183-4.736-7.316-0.179-0.945-0.178-2.121 0.456-2.579 0.449-0.324 1.033-0.143 1.554 0.046 2.214 0.801 4.428 1.602 6.641 2.404-1.063-0.582-2.152-1.184-3.011-2.196-0.86-1.012-1.452-2.536-1.202-3.916 0.294-1.621 1.685-2.543 3.011-2.438 1.328 0.106 2.577 1.022 3.673 2.073 1.169 1.122 2.32 2.648 2.374 4.453 0.055 1.806-1.696 3.37-2.804 2.147 2.532 1.026 4.962 2.569 7.164 4.55 0.797 0.716 1.583 1.516 2.096 2.571s0.707 2.42 0.271 3.446c-2.162 5.09-5.153-2.753-6.555-3.521-2.657-1.456-5.557 2.262-8.932 0.276" fill="#fff"/></g><g transform="translate(39.235 261.31)"><path d="m0 0c-0.251-1.037-0.114-2.26 0.526-2.884 0.641-0.624 1.801-0.33 2.119 0.681-1.484-0.677-3.071-1.448-4.019-3.087-0.947-1.639-0.771-4.393 0.686-4.914 0.908-0.326 1.896 0.308 2.753 0.949 2.423 1.815 4.742 3.873 6.927 6.15-0.69-1.97 0.847-4.062 2.486-4.14 1.639-0.079 3.194 1.147 4.623 2.324 1.753 1.445 3.771 3.61 3.362 6.094-0.355 2.162-2.531 2.996-4.229 2.251-1.697-0.744-2.998-2.557-4.21-4.292 0.958 1.777-0.311 4.251-1.927 4.431-1.571 0.175-3.165-1.145-4.174-2.684 1.859 1.397 2.331 4.772-0.12 5.009-1.595 0.155-4.385-4.164-4.803-5.888" fill="#fff"/></g><g transform="translate(89.765 271.91)"><path d="m0 0c-1.375 0.576-3.133-0.681-3.54-2.531-0.407-1.849 0.631-3.869 2.089-4.066-1.078-0.184-2.122-0.932-2.833-2.031-0.396-0.612-0.699-1.384-0.626-2.137 0.108-1.126 1.041-1.811 1.938-1.798 0.897 0.014 1.761 0.551 2.587 1.076-0.889-0.16-1.83-0.349-2.546-1.088s-1.048-2.23-0.431-2.991c0.516-0.637 1.387-0.473 2.109-0.173 1.619 0.674 3.136 1.84 4.382 3.37 0.892-1.237 2.233-2.087 3.587-1.724 1.354 0.364 2.533 2.266 2.141 3.898-0.279 1.164-1.236 1.849-2.202 1.94-0.965 0.09-1.942-0.308-2.877-0.748 0.965 0.918 1.99 1.939 2.363 3.378 0.373 1.437-0.343 3.294-1.508 3.109-1.308-0.21-2.017-2.518-3.062-3.396-1.245 1.443 1.195 4.754-1.571 5.912" fill="#fff"/></g><g transform="translate(66.364 277.4)"><path d="m0 0c-1.508-1.374-2.069-3.934-2.008-6.211 0.068-2.515 0.918-5.154 2.714-6.055 2.362-1.185 5.391 1.531 5.889 4.832s-1.126 6.528-3.41 7.918c0 0-1.676 0.89-3.185-0.484" fill="#fff"/></g><g transform="translate(83.081 281.14)"><path d="m0 0c0.201-0.213 0.402-0.425 0.602-0.639-0.983 1.572-3.116 1.657-4.343 0.172-1.228-1.485-1.285-4.219-0.117-5.567s3.31-1.02 4.361 0.668c1.705-0.915 3.984-0.379 5.23 1.561 1.246 1.939 1.032 5.174-0.599 6.268-1.63 1.095-4.176-0.853-4.045-3.255-0.232 0.325-0.465 0.65-0.698 0.975z" fill="#fff"/></g><g transform="translate(101.41 278.48)"><path d="m0 0c-1.207-1.553-2.463-3.21-2.933-5.274-0.47-2.065 0.197-4.615 1.791-5.037 1.585-0.418 3.128 1.35 4.07 3.153 0.849 1.628 1.512 3.633 1.072 5.399-0.439 1.766-2.448 2.705-3.487 1.26z" fill="#fff"/></g><g transform="translate(75.123 289.17)"><path d="m0 0c-0.571 1.671-2.463 2.153-3.728 1.087s-1.765-3.324-1.252-5.03c0.512-1.706 1.891-2.8 3.347-2.914 1.804-0.142 3.975 1.852 3.61 4.088 0.756-1.262 2.147-1.696 3.433-1.457 1.287 0.24 2.492 1.056 3.625 1.945 1.539 1.206 3.189 3.029 3.07 5.242-0.095 1.765-1.415 3.047-2.801 3.125-1.387 0.081-2.77-0.827-3.852-2.047-0.85-0.96-1.564-2.122-2.48-2.973-0.917-0.851-2.152-1.352-3.105-0.749z" fill="#fff"/></g></g></g><path d="m376.35 130.09h-230.67v97.147h230.67z" fill="#5ae4a7" stroke="#1a2e35" stroke-linecap="round" stroke-linejoin="round" stroke-miterlimit="10"/><g fill="#fff" stroke="#1a2e35" stroke-miterlimit="10"><path d="m172.21 209.35h-21.703v12.014h21.703z"/><path d="m371.02 150.78h-34.184v12.015h34.184z"/><path d="m371.02 194.34h-21.1v12.015h21.1z"/><path d="m172.21 165.6h-21.703v12.014h21.703z"/><path d="m168.07 180.06h-17.569v12.014h17.569z"/><path d="m162.52 194.7h-12.014v12.015h12.014z"/><path d="m177.85 194.7h-12.014v12.015h12.014z"/><path d="m193.18 194.7h-12.014v12.015h12.014z"/><path d="m208.52 194.7h-12.014v12.015h12.014z"/><path d="m223.85 194.7h-12.014v12.015h12.014z"/><path d="m239.18 194.7h-12.014v12.015h12.014z"/><path d="m254.52 194.7h-12.015v12.015h12.015z"/><path d="m269.85 194.7h-12.014v12.015h12.014z"/><path d="m285.19 194.7h-12.015v12.015h12.015z"/><path d="m300.52 194.7h-12.014v12.015h12.014z"/><path d="m315.85 194.7h-12.014v12.015h12.014z"/><path d="m331.19 194.7h-12.015v12.015h12.015z"/><path d="m346.52 194.7h-12.014v12.015h12.014z"/><path d="m162.52 135.97h-12.014v12.015h12.014z"/><path d="m177.85 135.97h-12.014v12.015h12.014z"/><path d="m193.18 135.97h-12.014v12.015h12.014z"/><path d="m211.16 135.97h-14.658v12.015h14.658z"/><path d="m287.83 135.97h-73.349v12.015h73.349z"/><path d="m324.5 135.97h-12.014v12.015h12.014z"/><path d="m339.84 135.97h-12.015v12.015h12.015z"/><path d="m355.2 135.97h-12.015v12.015h12.015z"/><path d="m309.48 135.97h-18.653v12.015h18.653z"/><path d="m371.02 135.97h-12.014v12.015h12.014z"/><path d="m183.5 180.06h-12.014v12.014h12.014z"/><path d="m198.83 180.06h-12.014v12.014h12.014z"/><path d="m214.16 180.06h-12.014v12.014h12.014z"/><path d="m229.5 180.06h-12.014v12.014h12.014z"/><path d="m244.83 180.06h-12.014v12.014h12.014z"/><path d="m260.16 180.06h-12.014v12.014h12.014z"/><path d="m275.5 180.06h-12.014v12.014h12.014z"/><path d="m290.83 180.06h-12.014v12.014h12.014z"/><path d="m306.16 180.06h-12.015v12.014h12.015z"/><path d="m321.5 180.06h-12.014v12.014h12.014z"/><path d="m336.83 180.06h-12.015v12.014h12.015z"/><path d="m352.16 180.06h-12.014v12.014h12.014z"/></g><g transform="translate(371.01 192.08)"><path d="m0 0v-26.653h-12.011v14.642h-3.523v12.011z" fill="#fff"/></g><g transform="translate(371.01 192.08)"><path d="m0 0v-26.653h-12.011v14.642h-3.523v12.011z" fill="none" stroke="#1a2e35" stroke-miterlimit="10"/></g><g fill="#fff" stroke="#1a2e35" stroke-miterlimit="10"><path d="m187.01 165.42h-12.014v12.014h12.014z"/><path d="m202.34 165.42h-12.014v12.014h12.014z"/><path d="m217.68 165.42h-12.014v12.014h12.014z"/><path d="m233.01 165.42h-12.014v12.014h12.014z"/><path d="m248.35 165.42h-12.014v12.014h12.014z"/><path d="m263.68 165.42h-12.015v12.014h12.015z"/><path d="m279.01 165.42h-12.014v12.014h12.014z"/><path d="m294.35 165.42h-12.014v12.014h12.014z"/><path d="m309.68 165.42h-12.015v12.014h12.015z"/><path d="m325.01 165.42h-12.014v12.014h12.014z"/><path d="m340.35 165.42h-12.015v12.014h12.015z"/><path d="m355.68 165.42h-12.015v12.014h12.015z"/><path d="m180.5 150.78h-12.014v12.015h12.014z"/><path d="m195.83 150.78h-12.014v12.015h12.014z"/><path d="m211.16 150.78h-12.014v12.015h12.014z"/><path d="m226.5 150.78h-12.014v12.015h12.014z"/><path d="m241.83 150.78h-12.014v12.015h12.014z"/><path d="m257.16 150.78h-12.014v12.015h12.014z"/><path d="m272.5 150.78h-12.014v12.015h12.014z"/><path d="m287.83 150.78h-12.015v12.015h12.015z"/><path d="m303.16 150.78h-12.014v12.015h12.014z"/><path d="m318.5 150.78h-12.014v12.015h12.014z"/><path d="m333.83 150.78h-12.015v12.015h12.015z"/><path d="m187.01 208.62h-12.014v12.014h12.014z"/><path d="m202.34 208.62h-12.014v12.014h12.014z"/><path d="m217.68 208.62h-12.014v12.014h12.014z"/><path d="m233.01 208.62h-12.014v12.014h12.014z"/><path d="m248.35 208.62h-12.014v12.014h12.014z"/><path d="m263.68 208.62h-12.015v12.014h12.015z"/><path d="m279.01 208.62h-12.014v12.014h12.014z"/><path d="m294.35 208.62h-12.014v12.014h12.014z"/><path d="m309.68 208.62h-12.015v12.014h12.015z"/><path d="m325.01 208.62h-12.014v12.014h12.014z"/><path d="m340.35 208.62h-12.015v12.014h12.015z"/><path d="m355.68 208.62h-12.015v12.014h12.015z"/><path d="m371.02 208.62h-12.014v12.014h12.014z"/><path d="m165.06 150.78h-14.555v12.015h14.555z"/></g><g transform="translate(145.68 226.62)"><path d="m0 0 4.819 1.607h222.72l3.173-1.586z" fill="#1a2e35"/></g><g clip-path="url(#clipPath322)"><g clip-path="url(#clipPath330)" opacity=".2"><g transform="translate(310.33 60)"><path d="m0 0-4.69 28.25c-1.03 4.21-3.24 8.04-6.35 11.06-9.33 9-21.66 18.24-22.19 30.04-0.81 18.03-3.62 17.49-3.32 21.94 0.01 0.16 1.4 2.15 3.21 6.6 0.58 1.44 0.97 3.58 1.36 5.34 0.4 1.85 2.16 3.11 4.04 2.85 1.26-0.17 2.5-0.74 3.39-1.59 1.71-1.66 2.47-4.11 2.54-6.5 0.07-2.38-0.46-4.74-1-7.06 1.68-3.76 2.47-8.33 3.01-12.41 1.07 3.3 1.88 6.63 2.95 9.92 0.22 0.12 0.14 0.38 0.35 0.5-1.51 3.24-0.23 3.06-3.22 10.19-5.03 12-10.641 23.57-14.65 38.65-0.32 1.17-0.3 3.09 0.09 4.24 1.45 4.31 5.89 3.32 7.83 0.81 0.52-0.66 0.9-1.4 1.2-2.18 2.05-5.37 6.42-13.65 9.57-18.45l10.89-16.6s3.79 3.11 4.37 4.5l0.01 0.01c0.57 1.4 0.85 12.67 0.85 12.67s-0.86-2.11-2.77-1.99c-1.38 0.1-4.18-0.7-6.17 1.54-1.63 1.83-1.63 4.58-0.18 6.54l4.93 6.66s3.31 2.9 7.74 0.93c4.42-1.98 8.71-6.1 8.71-6.1s4.1 0.21 7.58-1.46c3.49-1.68 7.149-6.5 7.149-6.5s4.071-0.25 5.901-1.58c0.46-0.33 6.67-10 4.43-17.53-1.331-4.49-2.15-11.01-2.75-12.76l-3.05-44.09 6.15-29.02-13.149-7.33c-4.835-2.695-9.9-4.96-15.132-6.767z"/></g></g><g transform="translate(347.67 111.52)"><path d="m0 0 0.117 44.203c0.483 1.787 0.867 8.347 1.895 12.916 1.733 7.661-5.105 16.896-5.586 17.195-1.915 1.199-5.992 1.178-5.992 1.178s-3.97 4.569-7.566 6.014c-3.584 1.433-7.661 0.952-7.661 0.952s-4.548 3.83-9.096 5.511c-4.548 1.669-7.661-1.446-7.661-1.446l-4.472-6.965c-1.317-2.055-1.135-4.805 0.609-6.517 2.141-2.107 4.88-1.123 6.26-1.123 1.916 0 2.632 2.161 2.632 2.161s0.471-11.257 0-12.69l-0.01-0.011c-0.492-1.434-4.067-4.783-4.067-4.783l-11.963 15.837c-3.466 4.579-8.378 12.551-10.775 17.773-0.353 0.76-0.781 1.477-1.349 2.097-2.097 2.376-6.591 3.071-7.757-1.326-0.311-1.178-0.204-3.093 0.192-4.238 5.008-14.777 11.375-25.949 17.186-37.591 3.456-6.913 2.171-6.827 3.894-9.952-0.203-0.138-0.106-0.395-0.32-0.524-0.846-3.359-1.435-6.731-2.28-10.09-0.813 4.034-1.905 8.539-3.831 12.177 0.385 2.354 0.76 4.74 0.525 7.116-0.225 2.375-1.146 4.772-2.964 6.314-0.942 0.791-2.216 1.272-3.488 1.358-1.895 0.14-3.564-1.241-3.842-3.113-0.268-1.777-0.514-3.939-1.006-5.415-1.509-4.559-2.761-6.634-2.761-6.795 0-4.462 2.761-3.735 4.773-21.679 1.562-13.975 19.56-23.21 29.362-33.3l10.443-32.85c12.124 4.857 23.723 11.075 34.852 18.297z" fill="#fff"/></g></g><g clip-path="url(#clipPath350)"><g transform="translate(342.55 171.59)"><path d="m0 0c0.531 1.3 1.162 2.638 2.296 3.466 1.135 0.828 2.916 0.932 3.827-0.137-0.746 2.294-1.539 4.572-2.377 6.834-0.638 1.722-1.358 3.515-2.78 4.677-1.421 1.161-3.764 1.407-4.983 0.033 0.87-5.216 0.964-10.561 0.281-15.805-0.37-2.839-0.848-6.104 1.065-8.235 0.526-0.43 1.441 0.342 1.108 0.934-0.159 0.279-0.725 0.298-0.97 0.273 0.614 2.715 1.479 5.384 2.533 7.96" fill="#5ae4a7"/></g><g transform="translate(342.55 171.59)"><path d="m0 0c0.531 1.3 1.162 2.638 2.296 3.466 1.135 0.828 2.916 0.932 3.827-0.137-0.746 2.294-1.539 4.572-2.377 6.834-0.638 1.722-1.358 3.515-2.78 4.677-1.421 1.161-3.764 1.407-4.983 0.033 0.87-5.216 0.964-10.561 0.281-15.805-0.37-2.839-0.848-6.104 1.065-8.235 0.526-0.43 1.441 0.342 1.108 0.934-0.159 0.279-0.725 0.298-0.97 0.273 0.614 2.715 1.479 5.384 2.533 7.96" fill="#5ae4a7"/></g><g clip-path="url(#clipPath366)" opacity=".5"><g transform="translate(342.55 171.59)"><path d="m0 0c0.531 1.3 1.162 2.638 2.296 3.466 1.135 0.828 2.916 0.932 3.827-0.137-0.746 2.294-1.539 4.572-2.377 6.834-0.638 1.722-1.358 3.515-2.78 4.677-1.421 1.161-3.764 1.407-4.983 0.033 0.87-5.216 0.964-10.561 0.281-15.805-0.37-2.839-0.848-6.104 1.065-8.235 0.526-0.43 1.441 0.342 1.108 0.934-0.159 0.279-0.725 0.298-0.97 0.273 0.614 2.715 1.479 5.384 2.533 7.96" fill="#fff"/></g></g><g transform="translate(326.59 176.33)"><path d="m0 0c0.075-1.924 0.063-3.872 0.537-5.737 0.474-1.866 1.512-3.683 3.195-4.617-0.992 3.727-0.456 7.668 0.087 11.486 0.329 2.319 0.659 4.639 0.989 6.959 0.114 0.805 0.241 1.645 0.705 2.314s1.374 1.106 2.114 0.766c-0.988-0.586-2.272 0.199-2.867 1.182-0.596 0.981-0.831 2.168-1.536 3.074-1.337 1.719-4.197 2.098-6.174 1.64 0.599-5.711 2.72-11.165 2.95-17.067" fill="#5ae4a7"/></g><g transform="translate(326.59 176.33)"><path d="m0 0c0.075-1.924 0.063-3.872 0.537-5.737 0.474-1.866 1.512-3.683 3.195-4.617-0.992 3.727-0.456 7.668 0.087 11.486 0.329 2.319 0.659 4.639 0.989 6.959 0.114 0.805 0.241 1.645 0.705 2.314s1.374 1.106 2.114 0.766c-0.988-0.586-2.272 0.199-2.867 1.182-0.596 0.981-0.831 2.168-1.536 3.074-1.337 1.719-4.197 2.098-6.174 1.64 0.599-5.711 2.72-11.165 2.95-17.067" fill="#5ae4a7"/></g><g clip-path="url(#clipPath390)" opacity=".5"><g transform="translate(326.59 176.33)"><path d="m0 0c0.075-1.924 0.063-3.872 0.537-5.737 0.474-1.866 1.512-3.683 3.195-4.617-0.992 3.727-0.456 7.668 0.087 11.486 0.329 2.319 0.659 4.639 0.989 6.959 0.114 0.805 0.241 1.645 0.705 2.314s1.374 1.106 2.114 0.766c-0.988-0.586-2.272 0.199-2.867 1.182-0.596 0.981-0.831 2.168-1.536 3.074-1.337 1.719-4.197 2.098-6.174 1.64 0.599-5.711 2.72-11.165 2.95-17.067" fill="#fff"/></g></g><g transform="translate(310.27 191.75)"><path d="m0 0c-0.646 0.474-0.86 1.325-1.055 2.102s-0.472 1.627-1.171 2.019c-3.071-1.947-1.392-7.656-4.497-9.551-0.601-0.367-1.37-0.574-1.705-1.194-0.302-0.562-0.11-1.297 0.328-1.761 0.439-0.463 1.072-0.694 1.7-0.806 2.469-0.445 5.072 0.817 6.546 2.847 1.216 1.675 2.058 4.381 1.458 6.366-0.471-0.261-1.144-0.361-1.604-0.022" fill="#5ae4a7"/></g><g transform="translate(278.34 154.36)"><path d="m0 0c-0.056-0.214-0.096-0.481 0.075-0.622 0.263-0.217 0.614 0.119 0.81 0.398 1.288 1.832 3.839 2.661 5.957 1.934 0.809 0.017 1.084 1.247 0.554 1.859-0.53 0.613-1.43 0.718-2.24 0.721-0.808 2e-3 -1.675-0.041-2.36 0.389-0.844 0.527-1.175 1.599-0.96 2.52-0.544-2.409-1.216-4.803-1.836-7.199" fill="#5ae4a7"/></g><g clip-path="url(#clipPath414)" opacity=".5"><g transform="translate(310.27 191.75)"><path d="m0 0c-0.646 0.474-0.86 1.325-1.055 2.102s-0.472 1.627-1.171 2.019c-3.071-1.947-1.392-7.656-4.497-9.551-0.601-0.367-1.37-0.574-1.705-1.194-0.302-0.562-0.11-1.297 0.328-1.761 0.439-0.463 1.072-0.694 1.7-0.806 2.469-0.445 5.072 0.817 6.546 2.847 1.216 1.675 2.058 4.381 1.458 6.366-0.471-0.261-1.144-0.361-1.604-0.022" fill="#fff"/></g><g transform="translate(278.34 154.36)"><path d="m0 0c-0.056-0.214-0.096-0.481 0.075-0.622 0.263-0.217 0.614 0.119 0.81 0.398 1.288 1.832 3.839 2.661 5.957 1.934 0.809 0.017 1.084 1.247 0.554 1.859-0.53 0.613-1.43 0.718-2.24 0.721-0.808 2e-3 -1.675-0.041-2.36 0.389-0.844 0.527-1.175 1.599-0.96 2.52-0.544-2.409-1.216-4.803-1.836-7.199" fill="#fff"/></g></g><g transform="translate(319.06 192.51)"><path d="m0 0c-1.75 0.234-3.6 0.276-5.122 1.169-1.908 1.118-3.215 3.507-5.425 3.602-1.963 0.085-3.424-1.714-4.54-3.332-0.128 2.442 1.667 4.722 3.937 5.63 2.269 0.909 4.879 0.62 7.151-0.282 2.271-0.903 4.266-2.375 6.205-3.862 0.78-0.598 1.571-1.218 2.098-2.047 2.467-3.884-2.76-1.085-4.304-0.878" fill="#5ae4a7"/></g><g clip-path="url(#clipPath438)" opacity=".5"><g transform="translate(319.06 192.51)"><path d="m0 0c-1.75 0.234-3.6 0.276-5.122 1.169-1.908 1.118-3.215 3.507-5.425 3.602-1.963 0.085-3.424-1.714-4.54-3.332-0.128 2.442 1.667 4.722 3.937 5.63 2.269 0.909 4.879 0.62 7.151-0.282 2.271-0.903 4.266-2.375 6.205-3.862 0.78-0.598 1.571-1.218 2.098-2.047 2.467-3.884-2.76-1.085-4.304-0.878" fill="#fff"/></g></g><g transform="translate(287.78 135.71)"><path d="M 0,0 C 0.12,0.219 0.225,0.445 0.328,0.671 0.118,0.511 -0.021,0.288 0,0" fill="#5ae4a7"/></g><g transform="translate(290.75 151.21)"><path d="m0 0c-0.196 2.465 0.155 4.943 0.052 7.414s-0.748 5.071-2.548 6.768c-2.58 2.431-9.647 1.188-7.276-3.428 0.656-1.279 2.35-1.945 3.668-1.368 1.316 0.576 1.965 2.369 1.245 3.613 2.856-4.334 2.601-10.485-0.606-14.566 3.664-3.175 4.828-8.86 2.823-13.253 0.428 0.328 1.175 0.372 1.645 0.017 0.699-0.529 0.935-1.452 1.275-2.26 0.341-0.808 1.003-1.65 1.878-1.59 1.202 2.944 0.803 6.295 0.023 9.378-0.781 3.084-1.926 6.104-2.179 9.275" fill="#5ae4a7"/></g><g transform="translate(316.62 197.58)"><path d="m0 0c-1.376 1.055-3.009 1.771-4.729 1.994z" fill="#5ae4a7"/></g><g transform="translate(328.38 166.29)"><path d="m0 0c-0.379 1.7-1.164 3.283-1.632 4.961-1.091 3.911-0.406 8.088-0.906 12.117-0.647 5.21-3.365 10.134-7.43 13.456l-1.79 0.756c1.714-1.314 3.028-3.156 3.605-5.239 1.383-4.776 1.818-9.764 2.432-14.697 0.948-7.609 2.336-15.164 4.158-22.612 1.192 3.648 2.397 7.513 1.563 11.258" fill="#5ae4a7"/></g><g transform="translate(309.34 184.07)"><path d="m0 0c1.237 0.979 1.9 2.545 2.111 4.108 0.19 1.4 0.055 2.817-0.112 4.221-0.118-0.602-0.903-1.106-1.572-0.947-0.851 0.201-1.411 0.989-1.892 1.72-0.122-0.42-0.244-0.839-0.366-1.259-0.049 0.227-0.098 0.454-0.148 0.681l-0.474-0.604c0.709-2.008 1.391-4.337 0.298-6.163-0.531-0.884-1.405-1.497-2.252-2.084 1.295-0.902 3.169-0.652 4.407 0.327" fill="#5ae4a7"/></g><g transform="translate(311.28 192.9)"><path d="M 0,0 C 0.021,-0.165 0.039,-0.332 0.059,-0.498 0.09,-0.335 0.083,-0.166 0,0" fill="#5ae4a7"/></g><g transform="translate(306.05 172.66)"><path d="m0 0c-3.507 6.888-7.016 13.779-10.871 20.479-2.253 3.917-4.641 7.79-7.647 11.165-1.331 1.495-5.159 4.957-7.266 2.676-1.406-1.52 0.443-4.287-1.287-5.932 0.396-0.024 2.35 0.19 2.557-0.066 4.393-5.426 6.812-12.415 6.713-19.394 1.412 1.107 3.344-0.43 4.446-1.846 6.774-8.706 13.108-17.755 18.967-27.102-1.134 4.131-1.163 8.513-2.388 12.619-0.772 2.582-2.001 5-3.224 7.401" fill="#5ae4a7"/></g><g transform="translate(346.79 155.87)"><path d="m0 0c1.676 4.484 2.984 9.079 3.133 13.84 0.135 4.325-0.855 8.818-3.14 12.524-0.578 0.937-2.98 4.769-4.295 4.458-2.347-0.555 0.735-4.636 1.272-5.656 2.028-3.849 4.111-7.92 3.981-12.268-0.1-3.35-1.51-6.499-2.637-9.656-0.785-2.2-1.424-4.554-1.409-6.86-0.173-0.256-0.331-0.523-0.518-0.77-1.559-2.043-3.746-3.727-6.283-4.14 0.966 2.983 1.933 5.966 2.899 8.95 0.346 1.064 0.47 2.52-0.149 3.262 0.2 0.409 0.323 0.839 0.305 1.303-0.032 0.823-0.502 1.551-0.847 2.297-1.339 2.882-0.885 6.231-0.56 9.392 0.401 3.899 0.554 7.915-0.591 11.664-1.143 3.749-3.79 7.225-7.507 8.47 0.319-0.343 0.637-0.687 0.954-1.03l-1.259 0.917 2.343-4.875c-0.288-0.411-0.576-0.823-0.863-1.234 1.289 0.676 2.943-0.304 3.534-1.635 0.59-1.331 0.429-2.857 0.293-4.307-0.76-8.087-0.35-16.279 1.18-24.256-0.147-1.863-0.469-3.748-1.44-5.336-1.047-1.714-3.013-3.002-5-2.711 0.439 1.921-0.302 4.194-1.929 5.331-2.016-2.8-0.828-7.15-0.522-10.337 0.466-4.831 1.242-9.632 2.323-14.362 0.31 4.102 1.171 8.163 2.551 12.038 1.088-3.949 2.176-7.898 3.264-11.847 0.034 1.105 0.08 2.259 0.616 3.227 0.536 0.967 1.726 1.67 2.76 1.28 0.848-0.32 1.306-1.22 1.654-2.057 2.827-6.788 3.539-14.44 2.012-21.634 1.343-0.745 3.119 0.157 3.864 1.499 0.745 1.343 0.738 2.96 0.71 4.496-0.233 13.34-0.466 26.681-0.699 40.023" fill="#5ae4a7"/></g><g transform="translate(312.89 151.64)"><path d="m0 0c-0.641-1.124 1.979-5.584 2.413-6.644l6.612-16.142c-0.73 7.086-2.461 14.067-5.126 20.673-0.45 1.116-2.627 4.343-3.899 2.113" fill="#5ae4a7"/></g><g transform="translate(316.31 180.16)"><path d="m0 0c-0.375-0.568-0.913-1.269-1.564-1.069-0.608 0.185-0.711 0.988-0.701 1.624 0.061 3.743 0.121 7.487 0.183 11.231-3.022-2.166-2.635-5.006-2.847-8.237-0.123-1.871 0.418-10.796-0.858-11.89 2.987 2.549 5.519 5.63 7.441 9.056-0.524 0.434-1.279-0.146-1.654-0.715" fill="#5ae4a7"/></g><g clip-path="url(#clipPath494)" opacity=".5"><g transform="translate(287.78 135.71)"><path d="M 0,0 C 0.12,0.219 0.225,0.445 0.328,0.671 0.118,0.511 -0.021,0.288 0,0" fill="#fff"/></g><g transform="translate(290.75 151.21)"><path d="m0 0c-0.196 2.465 0.155 4.943 0.052 7.414s-0.748 5.071-2.548 6.768c-2.58 2.431-9.647 1.188-7.276-3.428 0.656-1.279 2.35-1.945 3.668-1.368 1.316 0.576 1.965 2.369 1.245 3.613 2.856-4.334 2.601-10.485-0.606-14.566 3.664-3.175 4.828-8.86 2.823-13.253 0.428 0.328 1.175 0.372 1.645 0.017 0.699-0.529 0.935-1.452 1.275-2.26 0.341-0.808 1.003-1.65 1.878-1.59 1.202 2.944 0.803 6.295 0.023 9.378-0.781 3.084-1.926 6.104-2.179 9.275" fill="#fff"/></g><g transform="translate(316.62 197.58)"><path d="m0 0c-1.376 1.055-3.009 1.771-4.729 1.994z" fill="#fff"/></g><g transform="translate(328.38 166.29)"><path d="m0 0c-0.379 1.7-1.164 3.283-1.632 4.961-1.091 3.911-0.406 8.088-0.906 12.117-0.647 5.21-3.365 10.134-7.43 13.456l-1.79 0.756c1.714-1.314 3.028-3.156 3.605-5.239 1.383-4.776 1.818-9.764 2.432-14.697 0.948-7.609 2.336-15.164 4.158-22.612 1.192 3.648 2.397 7.513 1.563 11.258" fill="#fff"/></g><g transform="translate(309.34 184.07)"><path d="m0 0c1.237 0.979 1.9 2.545 2.111 4.108 0.19 1.4 0.055 2.817-0.112 4.221-0.118-0.602-0.903-1.106-1.572-0.947-0.851 0.201-1.411 0.989-1.892 1.72-0.122-0.42-0.244-0.839-0.366-1.259-0.049 0.227-0.098 0.454-0.148 0.681l-0.474-0.604c0.709-2.008 1.391-4.337 0.298-6.163-0.531-0.884-1.405-1.497-2.252-2.084 1.295-0.902 3.169-0.652 4.407 0.327" fill="#fff"/></g><g transform="translate(311.28 192.9)"><path d="M 0,0 C 0.021,-0.165 0.039,-0.332 0.059,-0.498 0.09,-0.335 0.083,-0.166 0,0" fill="#fff"/></g><g transform="translate(306.05 172.66)"><path d="m0 0c-3.507 6.888-7.016 13.779-10.871 20.479-2.253 3.917-4.641 7.79-7.647 11.165-1.331 1.495-5.159 4.957-7.266 2.676-1.406-1.52 0.443-4.287-1.287-5.932 0.396-0.024 2.35 0.19 2.557-0.066 4.393-5.426 6.812-12.415 6.713-19.394 1.412 1.107 3.344-0.43 4.446-1.846 6.774-8.706 13.108-17.755 18.967-27.102-1.134 4.131-1.163 8.513-2.388 12.619-0.772 2.582-2.001 5-3.224 7.401" fill="#fff"/></g><g transform="translate(346.79 155.87)"><path d="m0 0c1.676 4.484 2.984 9.079 3.133 13.84 0.135 4.325-0.855 8.818-3.14 12.524-0.578 0.937-2.98 4.769-4.295 4.458-2.347-0.555 0.735-4.636 1.272-5.656 2.028-3.849 4.111-7.92 3.981-12.268-0.1-3.35-1.51-6.499-2.637-9.656-0.785-2.2-1.424-4.554-1.409-6.86-0.173-0.256-0.331-0.523-0.518-0.77-1.559-2.043-3.746-3.727-6.283-4.14 0.966 2.983 1.933 5.966 2.899 8.95 0.346 1.064 0.47 2.52-0.149 3.262 0.2 0.409 0.323 0.839 0.305 1.303-0.032 0.823-0.502 1.551-0.847 2.297-1.339 2.882-0.885 6.231-0.56 9.392 0.401 3.899 0.554 7.915-0.591 11.664-1.143 3.749-3.79 7.225-7.507 8.47 0.319-0.343 0.637-0.687 0.954-1.03l-1.259 0.917 2.343-4.875c-0.288-0.411-0.576-0.823-0.863-1.234 1.289 0.676 2.943-0.304 3.534-1.635 0.59-1.331 0.429-2.857 0.293-4.307-0.76-8.087-0.35-16.279 1.18-24.256-0.147-1.863-0.469-3.748-1.44-5.336-1.047-1.714-3.013-3.002-5-2.711 0.439 1.921-0.302 4.194-1.929 5.331-2.016-2.8-0.828-7.15-0.522-10.337 0.466-4.831 1.242-9.632 2.323-14.362 0.31 4.102 1.171 8.163 2.551 12.038 1.088-3.949 2.176-7.898 3.264-11.847 0.034 1.105 0.08 2.259 0.616 3.227 0.536 0.967 1.726 1.67 2.76 1.28 0.848-0.32 1.306-1.22 1.654-2.057 2.827-6.788 3.539-14.44 2.012-21.634 1.343-0.745 3.119 0.157 3.864 1.499 0.745 1.343 0.738 2.96 0.71 4.496-0.233 13.34-0.466 26.681-0.699 40.023" fill="#fff"/></g><g transform="translate(312.89 151.64)"><path d="m0 0c-0.641-1.124 1.979-5.584 2.413-6.644l6.612-16.142c-0.73 7.086-2.461 14.067-5.126 20.673-0.45 1.116-2.627 4.343-3.899 2.113" fill="#fff"/></g><g transform="translate(316.31 180.16)"><path d="m0 0c-0.375-0.568-0.913-1.269-1.564-1.069-0.608 0.185-0.711 0.988-0.701 1.624 0.061 3.743 0.121 7.487 0.183 11.231-3.022-2.166-2.635-5.006-2.847-8.237-0.123-1.871 0.418-10.796-0.858-11.89 2.987 2.549 5.519 5.63 7.441 9.056-0.524 0.434-1.279-0.146-1.654-0.715" fill="#fff"/></g></g></g><g clip-path="url(#clipPath546)"><g transform="translate(279.57 154.91)"><path d="m0 0c-1.158-0.919-2.155-2.04-2.933-3.298z" fill="#fff"/></g><g transform="translate(321.11 63.915)"><path d="m0 0-10.443 32.851c-9.802 10.089-27.8 19.325-29.363 33.299-2.011 17.945-4.772 17.217-4.772 21.679 0 0.161 1.252 2.236 2.761 6.795 0.492 1.477 0.738 3.639 1.005 5.415 0.279 1.872 1.948 3.253 3.842 3.113 1.273-0.086 2.546-0.567 3.489-1.358 1.818-1.541 2.739-3.939 2.963-6.314 0.236-2.376-0.139-4.761-0.524-7.116 1.926-3.637 3.018-8.142 3.831-12.176 0.845 3.359 1.434 6.73 2.278 10.089 0.215 0.129 0.119 0.386 0.322 0.525-1.723 3.125-0.439 3.039-3.895 9.952-5.81 11.642-12.178 22.813-17.185 37.591-0.396 1.144-0.503 3.059-0.193 4.237 1.167 4.397 5.66 3.702 7.758 1.326 0.567-0.62 0.995-1.337 1.349-2.096 2.396-5.222 7.308-13.195 10.775-17.774l11.963-15.837s3.574 3.35 4.066 4.783l0.011 0.011c0.471 1.434 0 12.691 0 12.691s-0.717-2.162-2.633-2.162c-1.38 0-4.119-0.984-6.259 1.123-1.745 1.712-1.926 4.462-0.61 6.517l4.473 6.966s3.113 3.114 7.661 1.445c4.548-1.68 9.096-5.511 9.096-5.511s4.077 0.482 7.661-0.953c3.595-1.444 7.565-6.012 7.565-6.012s4.077 0.02 5.992-1.178c0.482-0.3 7.32-9.534 5.586-17.195-1.027-4.57-1.412-11.129-1.894-12.916l-0.117-44.204 8.293-29.308" fill="none" stroke="#1a2e35" stroke-miterlimit="10"/></g><g transform="translate(323.97 192.41)"><path d="m0 0c1.766-6.52 2.686-13.268 2.729-20.021 6e-3 -1.13-6e-3 -2.287 0.356-3.357 0.361-1.071 1.186-2.061 2.293-2.286" fill="none" stroke="#1a2e35" stroke-miterlimit="10"/></g><g transform="translate(338.11 185.84)"><path d="m0 0c2.97-6.263-0.069-20.245 0.154-21.23 0.225-0.985 0.786-1.943 1.686-2.402" fill="none" stroke="#1a2e35" stroke-miterlimit="10"/></g><g transform="translate(312.33 193.26)"><path d="m0 0c-0.35-1.99-0.641-4.298-0.99-6.288-2.324 1.977-3.805 4.917-4.009 7.962" fill="none" stroke="#1a2e35" stroke-miterlimit="10"/></g><g transform="translate(293.17 139.91)"><path d="m0 0c-0.719-0.317-1.438-0.634-2.158-0.951" fill="none" stroke="#1a2e35" stroke-miterlimit="10"/></g><g transform="translate(293.72 138.18)"><path d="m0 0c-0.352-1.661-0.359-3.395-0.022-5.059" fill="none" stroke="#1a2e35" stroke-miterlimit="10"/></g><g transform="translate(306.36 156.87)"><path d="m0 0c0.798-1.437 1.597-2.874 2.395-4.311" fill="none" stroke="#1a2e35" stroke-miterlimit="10"/></g><g transform="translate(310.96 172.64)"><path d="m0 0c0.793 1.121 1.586 2.241 2.38 3.362" fill="none" stroke="#1a2e35" stroke-miterlimit="10"/></g><g transform="translate(344.43 156.87)"><path d="m0 0c-0.24-0.878-0.479-1.756-0.719-2.635" fill="none" stroke="#1a2e35" stroke-miterlimit="10"/></g><g transform="translate(338.61 164.07)"><path d="m0 0c0.701 2.24 1.403 4.48 2.105 6.721" fill="none" stroke="#1a2e35" stroke-miterlimit="10"/></g><g transform="translate(345.65 175.99)"><path d="m0 0c1.235 0.716 3.029 0.158 3.64-1.133" fill="none" stroke="#1a2e35" stroke-miterlimit="10"/></g><g transform="translate(331.28 187.47)"><path d="m0 0c1.651 0.48 3.539 0.049 4.818-1.103" fill="none" stroke="#1a2e35" stroke-miterlimit="10"/></g><g transform="translate(286.74 180.8)"><path d="m0 0c1.536 1.708 3.925 2.607 6.206 2.337" fill="none" stroke="#1a2e35" stroke-miterlimit="10"/></g><g transform="translate(277.71 199.66)"><path d="m0 0c1.43 1.046 3.291 1.481 5.036 1.179" fill="none" stroke="#1a2e35" stroke-miterlimit="10"/></g><g transform="translate(279.57 154.91)"><path d="m0 0c-1.158-0.919-2.155-2.04-2.933-3.298" fill="none" stroke="#1a2e35" stroke-miterlimit="10"/></g><g transform="translate(280.53 159.45)"><path d="m0 0c1.581 1.13 4.1-1.397 5.554-0.107 0.578 0.513 0.622 1.403 0.488 2.166-0.135 0.761-0.402 1.525-0.289 2.291" fill="none" stroke="#1a2e35" stroke-miterlimit="10"/></g><g transform="translate(325.12 166.39)"><path d="m0 0c1.92-3.943 2.318-8.604 1.098-12.817" fill="none" stroke="#1a2e35" stroke-miterlimit="10"/></g><g transform="translate(336.74 160.22)"><path d="m0 0c0.315-1.874-0.046-3.854-1.003-5.497" fill="none" stroke="#1a2e35" stroke-miterlimit="10"/></g><g clip-path="url(#clipPath630)" opacity=".2"><g transform="translate(240.05 145.21)"><path d="m0 0c0.09-0.69 0.06-1.4-0.09-2.08-0.65-3.01-2.53-11.78-3.22-16.58-0.82-5.86-10.29-24-10.29-24s-8.72-10.84-13.16-16.48c-2.18-2.77-5.63-13.98-8.56-24.66-3.7 1.12-7.36 2.33-11 3.62-3.01 1.07-6.02 2.201-8.99 3.37-4.18 1.65-9.51 4.27-15.63 7.62 1.66 6.03 2.77 10.67 2.75 10.94-0.05 0.63 3.56 7.58 3.56 7.58l-3.15 41.441-1.86 6.309c-0.97 3.26-1.58 6.62-1.83 9.98-0.39 5.13 0.04 10.3 1.29 15.33l5.43 8.06 2.54 0.19 7.86 10.98s4.25 1.28 5.34-1.92c1.09-3.21-3.54-9.179-3.54-9.179l-1.59-9.871 3.78-9.24 1.96-0.72s0.66 16.27 0.21 19.52l4.18 14.85s2.49 4.961 3.26 7.461c0.76 2.489 5.23 4.959 7.8 0.589 0 0 1.43-2.22 0.4-5.27-1.05-3.05-1.92-5.45-1.92-5.45s-0.95-12.58-1.25-12.93c-0.3-0.33 1.85-18.73 1.85-18.73l1.64-0.73 0.58 17.55 3.41 16.49s-0.28 7.93 5.31 6.97c0 0 2.62 0.3 4.11-2.56 1.49-2.85 0.07-21.83 0.07-21.83l1.38-19.62 2.21-15.13 2.6 10.37s0.15 14.86 9.53 16.13c0 0 2.79 0.5 3.36-1.44 0.57-1.93-1.39-5.9-1.11-9.7 0.21-2.67 0.59-5.68 0.78-7.23"/></g></g><g transform="translate(237.2 163.58)"><path d="m0 0c-0.428 1.979-3.242 1.69-3.242 1.69-9.449-0.555-10.722-15.365-10.722-15.365l-3.382-10.144-1.059 15.258 0.107 19.668s2.857 18.823 1.584 21.776c-1.263 2.964-3.906 2.856-3.906 2.856-5.5 1.381-5.821-6.548-5.821-6.548l-4.644-16.179-1.905-17.452-1.583 0.844s-0.749 18.512-0.428 18.823c0.321 0.321 2.226 12.797 2.226 12.797s1.048 2.323 2.321 5.287c1.263 2.963 0 5.286 0 5.286-2.225 4.548-6.869 2.428-7.822 0-0.952-2.429-3.809-7.191-3.809-7.191l-5.297-14.488c0.203-3.274-1.68-19.454-1.68-19.454l-1.904 0.867-3.072 9.502 2.333 9.727s5.072 5.596 4.227 8.88c-0.846 3.275-5.179 2.323-5.179 2.323l-8.668-10.358h-2.546l-6.025-7.619c-1.626-4.922-2.45-10.048-2.45-15.194 0-3.371 0.353-6.763 1.07-10.091l1.38-6.431v-41.56s-4.119-6.656-4.119-7.287c0-0.289-1.702-5.543-4.077-12.092 10.368-6.1 19.303-10.819 25.628-13.312 2.974-1.176 5.981-2.3 8.999-3.371 3.798 10.669 8.239 22.086 10.69 24.751 4.858 5.286 14.37 15.441 14.37 15.441s10.818 17.367 12.081 23.145c1.049 4.74 3.585 13.343 4.462 16.297 0.203 0.663 0.289 1.369 0.246 2.064-0.075 1.563-0.225 4.591-0.225 7.266 0 3.81 2.258 7.619 1.841 9.588" fill="#fff"/></g></g><g clip-path="url(#clipPath650)"><g transform="translate(172.3 167.76)"><path d="m0 0c1.614 2.014 4.936 2.787 6.813 1.017 1.077-1.016 1.44-2.559 1.713-4.014 0.274-1.455 0.545-2.996 1.509-4.118 0.965-1.123 2.891-1.564 3.905-0.487 0.135-2.189 0.269-4.378 0.404-6.569 2.336 4.057 3.54 8.756 3.444 13.436-0.047 2.274-0.391 4.587 0.136 6.798 0.528 2.213 2.245 4.368 4.517 4.471 2.521 0.114 4.514-2.34 4.998-4.816s-0.083-5.02-0.237-7.537c-0.234-3.841 0.518-7.738 2.166-11.214l1.588 3.217c0.477-2.152 0.954-4.304 1.43-6.455 0.414 4.735 0.827 9.47 1.24 14.206 0.117 1.337 0.246 2.715 0.869 3.905 0.623 1.188 1.875 2.154 3.211 2.021 1.801-0.179 2.837-2.101 3.44-3.807 4.505-12.742 2.65-26.741 0.74-40.12 1.252-0.223 2.305 1.035 2.617 2.268 0.313 1.234 0.202 2.566 0.67 3.749s1.916 2.158 2.993 1.481c1.575-0.993 0.475-4.066 2.131-4.914 0.514 3.957 2.093 7.771 4.527 10.932 1.109 1.441 2.775 2.868 4.533 2.412 1.314-0.341 2.17-1.682 2.364-3.024 0.193-1.343 2.13 4.201 1.796 2.886 0.757 7.714-0.758 8.527-1e-3 16.241 0.137 1.392 2.389 3.806 1.431 4.827-0.911 0.971-3.63 2.392-4.838 1.833s-5.138-2.514-5.919-3.591c-4.913-6.785-4.578-16.61-6.106-24.846-1.304 12.56-2.602 25.327-0.299 37.743 1.269 6.848 3.611 13.982 1.399 20.587-1.009 3.014-3.688 6.031-6.815 5.458-2.524-0.463-4.05-3.006-5.075-5.359-3.442-7.901-4.972-16.479-6.475-24.967 1.879 8.541 3.759 17.082 5.638 25.623 0.488 2.22 0.978 4.51 0.575 6.747-0.404 2.236-1.932 4.43-4.156 4.898-2.206 0.464-4.398-0.842-6.063-2.363-5.944-5.438-8.156-13.735-10.094-21.554 0.68 2.042 1.369 4.159 1.159 6.302-0.211 2.142-1.573 4.329-3.676 4.791-2.723 0.597-5.197-1.834-6.392-4.352-1.196-2.517-1.786-5.413-3.691-7.448-1.39 1.564-4.001 1.474-5.745 0.318-1.746-1.155-2.798-3.09-3.65-5.001-3.128-7.017-4.471-14.822-3.868-22.481 1.379 3.074 4.865 5.058 8.212 4.674-0.198 1.704-0.398 3.408-0.596 5.112" fill="#5ae4a7"/></g><g transform="translate(178.89 151.49)"><path d="m0 0c-0.084-1.263-0.169-2.524-0.253-3.787 0.386 1.052 1.929 1.443 2.77 0.703-0.186 0.802 0.312 1.58 0.629 2.34s0.351 1.839-0.389 2.201c-0.879 0.43-1.749-0.58-2.212-1.442-0.038 0.312-0.077 0.626-0.116 0.938z" fill="#5ae4a7"/></g><g transform="translate(193.23 153.75)"><path d="m0 0c-1.031-1.179-1.737-2.64-2.019-4.181 0.436 0.427 0.889 0.865 1.461 1.073 0.573 0.208 1.301 0.119 1.663-0.371 0.226-0.305 0.307-0.744 0.643-0.918 0.339-0.176 0.775 0.036 0.977 0.36 0.202 0.323 0.232 0.722 0.255 1.102 0.046 0.729 0.089 1.475-0.122 2.173-0.211 0.699-0.732 1.351-1.444 1.505-0.713 0.153-1.559-0.37-1.564-1.099z" fill="#5ae4a7"/></g><g transform="translate(207.12 150.31)"><path d="m0 0c-1.096-1.473-1.822-3.218-2.096-5.034 0.737 0.107 1.355 0.589 1.943 1.044 0.589 0.455 1.229 0.918 1.97 0.975 0.742 0.058 1.578-0.477 1.555-1.221-0.142 0.839-7e-3 1.696 0.083 2.542 0.089 0.845 0.128 1.728-0.187 2.518-0.316 0.79-1.077 1.46-1.927 1.414-0.849-0.046-1.579-1.038-1.181-1.79z" fill="#5ae4a7"/></g><g transform="translate(168.91 145.29)"><path d="m0 0c-0.769-1.44-1.173-3.073-1.165-4.705 0.01 0.751 0.718 1.359 1.462 1.466 0.745 0.107 1.492-0.182 2.137-0.569 0.149 0.757 0.298 1.538 0.139 2.292-0.158 0.755-0.705 1.483-1.466 1.606s-1.603-0.611-1.394-1.354c-0.079 0.193-0.157 0.385-0.236 0.577z" fill="#5ae4a7"/></g><g clip-path="url(#clipPath678)" opacity=".5"><g transform="translate(172.3 167.76)"><path d="m0 0c1.614 2.014 4.936 2.787 6.813 1.017 1.077-1.016 1.44-2.559 1.713-4.014 0.274-1.455 0.545-2.996 1.509-4.118 0.965-1.123 2.891-1.564 3.905-0.487 0.135-2.189 0.269-4.378 0.404-6.569 2.336 4.057 3.54 8.756 3.444 13.436-0.047 2.274-0.391 4.587 0.136 6.798 0.528 2.213 2.245 4.368 4.517 4.471 2.521 0.114 4.514-2.34 4.998-4.816s-0.083-5.02-0.237-7.537c-0.234-3.841 0.518-7.738 2.166-11.214l1.588 3.217c0.477-2.152 0.954-4.304 1.43-6.455 0.414 4.735 0.827 9.47 1.24 14.206 0.117 1.337 0.246 2.715 0.869 3.905 0.623 1.188 1.875 2.154 3.211 2.021 1.801-0.179 2.837-2.101 3.44-3.807 4.505-12.742 2.65-26.741 0.74-40.12 1.252-0.223 2.305 1.035 2.617 2.268 0.313 1.234 0.202 2.566 0.67 3.749s1.916 2.158 2.993 1.481c1.575-0.993 0.475-4.066 2.131-4.914 0.514 3.957 2.093 7.771 4.527 10.932 1.109 1.441 2.775 2.868 4.533 2.412 1.314-0.341 2.17-1.682 2.364-3.024 0.193-1.343 2.13 4.201 1.796 2.886 0.757 7.714-0.758 8.527-1e-3 16.241 0.137 1.392 2.389 3.806 1.431 4.827-0.911 0.971-3.63 2.392-4.838 1.833s-5.138-2.514-5.919-3.591c-4.913-6.785-4.578-16.61-6.106-24.846-1.304 12.56-2.602 25.327-0.299 37.743 1.269 6.848 3.611 13.982 1.399 20.587-1.009 3.014-3.688 6.031-6.815 5.458-2.524-0.463-4.05-3.006-5.075-5.359-3.442-7.901-4.972-16.479-6.475-24.967 1.879 8.541 3.759 17.082 5.638 25.623 0.488 2.22 0.978 4.51 0.575 6.747-0.404 2.236-1.932 4.43-4.156 4.898-2.206 0.464-4.398-0.842-6.063-2.363-5.944-5.438-8.156-13.735-10.094-21.554 0.68 2.042 1.369 4.159 1.159 6.302-0.211 2.142-1.573 4.329-3.676 4.791-2.723 0.597-5.197-1.834-6.392-4.352-1.196-2.517-1.786-5.413-3.691-7.448-1.39 1.564-4.001 1.474-5.745 0.318-1.746-1.155-2.798-3.09-3.65-5.001-3.128-7.017-4.471-14.822-3.868-22.481 1.379 3.074 4.865 5.058 8.212 4.674-0.198 1.704-0.398 3.408-0.596 5.112" fill="#fff"/></g></g><g clip-path="url(#clipPath694)" opacity=".5"><g transform="translate(178.89 151.49)"><path d="m0 0c-0.084-1.263-0.169-2.524-0.253-3.787 0.386 1.052 1.929 1.443 2.77 0.703-0.186 0.802 0.312 1.58 0.629 2.34s0.351 1.839-0.389 2.201c-0.879 0.43-1.749-0.58-2.212-1.442-0.038 0.312-0.077 0.626-0.116 0.938z" fill="#fff"/></g><g transform="translate(193.23 153.75)"><path d="m0 0c-1.031-1.179-1.737-2.64-2.019-4.181 0.436 0.427 0.889 0.865 1.461 1.073 0.573 0.208 1.301 0.119 1.663-0.371 0.226-0.305 0.307-0.744 0.643-0.918 0.339-0.176 0.775 0.036 0.977 0.36 0.202 0.323 0.232 0.722 0.255 1.102 0.046 0.729 0.089 1.475-0.122 2.173-0.211 0.699-0.732 1.351-1.444 1.505-0.713 0.153-1.559-0.37-1.564-1.099z" fill="#fff"/></g><g transform="translate(207.12 150.31)"><path d="m0 0c-1.096-1.473-1.822-3.218-2.096-5.034 0.737 0.107 1.355 0.589 1.943 1.044 0.589 0.455 1.229 0.918 1.97 0.975 0.742 0.058 1.578-0.477 1.555-1.221-0.142 0.839-7e-3 1.696 0.083 2.542 0.089 0.845 0.128 1.728-0.187 2.518-0.316 0.79-1.077 1.46-1.927 1.414-0.849-0.046-1.579-1.038-1.181-1.79z" fill="#fff"/></g><g transform="translate(168.91 145.29)"><path d="m0 0c-0.769-1.44-1.173-3.073-1.165-4.705 0.01 0.751 0.718 1.359 1.462 1.466 0.745 0.107 1.492-0.182 2.137-0.569 0.149 0.757 0.298 1.538 0.139 2.292-0.158 0.755-0.705 1.483-1.466 1.606s-1.603-0.611-1.394-1.354c-0.079 0.193-0.157 0.385-0.236 0.577z" fill="#fff"/></g></g></g><g clip-path="url(#clipPath722)"><g transform="translate(159.11 81.71)"><path d="m0 0c2.375 6.549 4.077 11.803 4.077 12.092 0 0.631 4.12 7.286 4.12 7.286v41.561l-1.381 6.431c-0.716 3.328-1.07 6.72-1.07 10.091 0 5.146 0.824 10.272 2.451 15.194l6.024 7.619h2.547l8.667 10.358s4.334 0.952 5.179-2.322c0.845-3.285-4.226-8.881-4.226-8.881l-2.333-9.727 3.071-9.502 1.904-0.867s1.884 16.18 1.68 19.454l5.297 14.488s2.857 4.762 3.809 7.191c0.953 2.429 5.597 4.548 7.823 0 0 0 1.262-2.322 0-5.286-1.274-2.964-2.323-5.286-2.323-5.286s-1.904-12.477-2.225-12.798c-0.321-0.311 0.428-18.823 0.428-18.823l1.584-0.844 1.904 17.452 4.644 16.179s0.321 7.929 5.821 6.548c0 0 2.643 0.108 3.906-2.856 1.273-2.954-1.584-21.775-1.584-21.775l-0.106-19.668 1.059-15.259 3.381 10.144s1.273 14.81 10.722 15.366c0 0 2.814 0.289 3.242-1.691 0.417-1.969-1.841-5.778-1.841-9.588 0-2.675 0.15-5.703 0.226-7.265 0.042-0.696-0.043-1.402-0.247-2.065-0.877-2.954-3.413-11.556-4.462-16.297-1.263-5.778-12.08-23.145-12.08-23.145s-9.513-10.155-14.372-15.441c-2.45-2.665-6.891-14.082-10.689-24.751" fill="none" stroke="#1a2e35" stroke-miterlimit="10"/></g><g transform="translate(187.96 159.48)"><path d="m0 0c0.553-1.971-7e-3 -4.215-1.421-5.695" fill="#fff" stroke="#1a2e35" stroke-miterlimit="10"/></g><g transform="translate(171.84 145.5)"><path d="m0 0c1.376 2.128 2.712 5.05 2.343 7.557-0.722 4.908-2.959 10.558-1.952 15.417l1.929 9.31" fill="#fff" stroke="#1a2e35" stroke-miterlimit="10"/></g><g transform="translate(211.71 191.88)"><path d="m0 0c1.626 0.428 3.364 0.423 4.987-0.014 0.019 0.464 0.038 0.928 0.057 1.392" fill="none" stroke="#1a2e35" stroke-miterlimit="10"/></g><g transform="translate(198.58 198.12)"><path d="m0 0c0.958-0.687 2.308-0.779 3.35-0.229 1.043 0.552 1.727 1.719 1.698 2.898" fill="none" stroke="#1a2e35" stroke-miterlimit="10"/></g><g transform="translate(234.72 163.41)"><path d="m0 0c-2.775-0.633-4.853-3.5-4.59-6.334 0.817-0.244 1.634-0.487 2.452-0.731" fill="none" stroke="#1a2e35" stroke-miterlimit="10"/></g><g transform="translate(202.54 162.19)"><path d="m0 0c0.111-1.677-0.094-5.688 0.018-7.365" fill="#fff" stroke="#1a2e35" stroke-miterlimit="10"/></g><g transform="translate(204.38 159.86)"><path d="m0 0c-0.202-2.748-0.404-5.497-0.606-8.245 0.016 0.349 0.032 0.699 0.048 1.049" fill="#fff" stroke="#1a2e35" stroke-miterlimit="10"/></g><g transform="translate(219.64 136.69)"><path d="m0 0c0.733-3.008 0.397-6.265-0.935-9.06" fill="#fff" stroke="#1a2e35" stroke-miterlimit="10"/></g><g transform="translate(194.29 151.1)"><path d="m0 0c-2.179-2.391-1.86-8.124-0.32-11.279" fill="none" stroke="#1a2e35" stroke-miterlimit="10"/></g><g transform="translate(210.4 147.15)"><path d="m0 0c0.054-2.58-0.888-5.169-2.668-7.334" fill="none" stroke="#1a2e35" stroke-miterlimit="10"/></g><g transform="translate(178.41 149.96)"><path d="m0 0c-0.361-2.4 0.18-4.927 1.492-6.969" fill="none" stroke="#1a2e35" stroke-miterlimit="10"/></g><g transform="translate(169.13 142.49)"><path d="m0 0c-0.106-1.886 0.446-3.802 1.54-5.341" fill="none" stroke="#1a2e35" stroke-miterlimit="10"/></g><g transform="translate(181.85 188.59)"><path d="m0 0c1.132 0.547 2.594 0.312 3.499-0.562l1.236 1.632" fill="none" stroke="#1a2e35" stroke-miterlimit="10"/></g><g transform="translate(192.11 181.25)"><path d="m0 0c1.653 1.052 4.074 0.641 5.287-0.897" fill="none" stroke="#1a2e35" stroke-miterlimit="10"/></g><g transform="translate(208.13 176.25)"><path d="m0 0c1.785 0.808 3.934 0.763 5.683-0.119" fill="none" stroke="#1a2e35" stroke-miterlimit="10"/></g><g transform="translate(172.48 167.86)"><path d="m0 0c1.035 1.788 3.19 2.857 5.241 2.6" fill="none" stroke="#1a2e35" stroke-miterlimit="10"/></g><g transform="translate(165.77 158.29)"><path d="m0 0c0.026 1.293 1.089 2.486 2.371 2.662" fill="none" stroke="#1a2e35" stroke-miterlimit="10"/></g></g><g clip-path="url(#clipPath802)"><g transform="translate(464.88 271.61)"><path d="m0 0c0-22.89-18.556-41.447-41.446-41.447-22.891 0-41.448 18.557-41.448 41.447 0 22.891 18.557 41.447 41.448 41.447 22.89 0 41.446-18.556 41.446-41.447z" fill="none" stroke="#1a2e35" stroke-linecap="round" stroke-linejoin="round" stroke-miterlimit="10"/></g><g clip-path="url(#clipPath814)" opacity=".2"><g transform="translate(470.36 270.52)"><path d="m0 0c-8.837-14.495-11.98-12.537-42.125-26.978-15.303-7.33-30.092 16.237-20.087 40.426 0.488 1.18 4.812 7.15 4.812 7.15 1.82 8 8.46 14.699 16.45 16.58 7.979 1.889 16.92-1.12 22.13-7.46 5.66 5.01 13.87 6.869 21.179 5.059 0.351-1.02 0.681-2.02 1-3 0.12-0.38 0.25-0.75 0.361-1.13 0.38-1.169 0.74-2.339 1.07-3.52 0.659-2.239 1.27-4.489 1.84-6.759-3.33 0.929-6.681 0.949-9.84-0.591-2.21-1.079-4.061-2.86-6.36-3.739-2.3-0.871-5.481-0.38-6.361 1.92 1.111-4.621 5.958-3.239 10.616-4.154 7.21-1.415 9.035-7.703 5.315-13.804"/></g></g><g transform="translate(456.75 277.67)"><path d="m0 0s7.42 1.006 10.945 0.479c2.238-0.335 3.611-1.637 4.268-2.449 0.304-0.377 0.478-0.84 0.512-1.323l0.397-5.798c0.046-0.662-0.18-1.319-0.639-1.798-1.447-1.506-5.818-4.256-18.754-5.245-18.19-1.39 3.271 16.134 3.271 16.134" fill="#fff"/></g><g transform="translate(456.75 277.67)"><path d="m0 0s7.42 1.006 10.945 0.479c2.238-0.335 3.611-1.637 4.268-2.449 0.304-0.377 0.478-0.84 0.512-1.323l0.397-5.798c0.046-0.662-0.18-1.319-0.639-1.798-1.447-1.506-5.818-4.256-18.754-5.245-18.19-1.39 3.271 16.134 3.271 16.134z" fill="none" stroke="#1a2e35" stroke-linecap="round" stroke-linejoin="round" stroke-miterlimit="10"/></g><g transform="translate(451.33 292.66)"><path d="m0 0c2.088-2.596 6.073-8.487 6.073-17.63 0-6.911-8.003-30.512-28.493-33.384-21.688-3.041-39.125 15.522-35.401 37.859 2.576 15.45 40.409 34.795 57.821 13.155" fill="#fff"/></g><g transform="translate(451.33 292.66)"><path d="m0 0c2.088-2.596 6.073-8.487 6.073-17.63 0-6.911-8.003-30.512-28.493-33.384-21.688-3.041-39.125 15.522-35.401 37.859 2.576 15.45 40.409 34.795 57.821 13.155z" fill="none" stroke="#1a2e35" stroke-linecap="round" stroke-linejoin="round" stroke-miterlimit="10"/></g><g transform="translate(393.35 276.59)"><path d="m0 0c0-16.451 14.09-29.787 31.471-29.787 17.38 0 31.469 13.336 31.469 29.787s-14.089 29.787-31.469 29.787c-17.381 0-31.471-13.336-31.471-29.787" fill="#fff"/></g><g transform="translate(398.92 275.03)"><path d="m0 0c0-13.505 11.566-24.453 25.835-24.453s25.835 10.948 25.835 24.453-11.566 24.453-25.835 24.453-25.835-10.948-25.835-24.453" fill="#1a2e35"/></g><g transform="translate(456.29 276.59)"><path d="m0 0c0 16.451-14.09 29.787-31.47 29.787-17.381 0-31.47-13.336-31.47-29.787" fill="none" stroke="#1a2e35" stroke-linecap="round" stroke-linejoin="round" stroke-miterlimit="10"/></g><g transform="translate(447.99 256.42)"><path d="m0 0c5.155 5.305 8.304 12.385 8.304 20.161" fill="none" stroke="#1a2e35" stroke-linecap="round" stroke-linejoin="round" stroke-miterlimit="10"/></g><g transform="translate(402.78 255.33)"><path d="m0 0c5.678-5.275 13.46-8.529 22.045-8.529 5.271 0 10.241 1.227 14.606 3.396" fill="none" stroke="#1a2e35" stroke-linecap="round" stroke-linejoin="round" stroke-miterlimit="10"/></g><g transform="translate(398.24 260.64)"><path d="m0 0c0.412-0.614 0.848-1.214 1.306-1.796" fill="none" stroke="#1a2e35" stroke-linecap="round" stroke-linejoin="round" stroke-miterlimit="10"/></g><g transform="translate(393.35 276.59)"><path d="m0 0c0-4.545 1.076-8.854 3-12.708" fill="none" stroke="#1a2e35" stroke-linecap="round" stroke-linejoin="round" stroke-miterlimit="10"/></g><g transform="translate(471.01 268.43)"><path d="m0 0s-5.611 3.921-14.713 0.366" fill="#fff" stroke="#1a2e35" stroke-linecap="round" stroke-linejoin="round" stroke-miterlimit="10"/></g><g transform="translate(466.18 265.71)"><path d="m0 0c-2.146-0.636-5.747-1.372-11.638-1.828" fill="#fff" stroke="#1a2e35" stroke-linecap="round" stroke-linejoin="round" stroke-miterlimit="10"/></g><g transform="translate(469.09 266.95)"><path d="m0 0s-0.339-0.299-1.403-0.723" fill="#fff" stroke="#1a2e35" stroke-linecap="round" stroke-linejoin="round" stroke-miterlimit="10"/></g><g transform="translate(474.08 301.17)"><path d="m0 0c-0.11 0.38-0.24 0.75-0.36 1.13-1.911 5.92-4.37 12.42-7.36 19.28-0.551 1.27-1.13 2.56-1.71 3.86-0.23-0.02-0.45-0.04-0.67-0.06-2.87-0.29-5.89-0.65-8.25-2.28-2.37-1.66-3.77-5.07-2.24-7.52 1.5-2.43 5.43-3.78 4.81-6.55-6.41-3.61-14.23-3.19-21.36-5.01-4.29-1.09-8.35-3.02-11.91-5.62-0.011 0-0.011-0.01-0.02-0.01-1.13-0.85-2.22-1.75-3.241-2.72-0.449-0.43-0.919-0.9-1.319-1.42-0.01-0.01-0.01-0.01-0.01-0.02-0.59-0.75-1.04-1.59-1.131-2.54-0.25-2.67 2.181-4.49 4.771-5.65 0.479-0.22 0.45-0.91-0.04-1.08-1.69-0.68-3.34-1.47-4.67-2.7-0.01 0-0.02-0.01-0.03-0.02-0.821-0.74-0.15-2.13 0.969-1.98 0.121 0.02 0.271 0.03 0.401 0.04 1.099 0.08 2.13-0.05 3.02-0.36 1.53-0.54 2.6-1.58 2.71-2.86 0.16-2.03-2.15-3.86-5.15-4.09-0.731-0.07-0.17-0.94 0.9-1.12 2.13-0.38 4.3 0.03 6.4 0.52 2.51 0.6 5.19 1.47 6.61 3.62 0.6 0.91 0.78 2.1 0.6 3.18-0.25 1.48-1.18 2.77-2.66 2.92 4.64 0.55 9.24 1.47 13.72 2.75h0.01l1.41 0.43c1.34 0.4 2.75 0.89 3.87 1.69 0.7 0.5 1.28 1.09 1.69 1.86 1.04 2.01-0.43 5.19-2.65 4.77 6.45 2.53 13.27 4.01 19.79 6.34 1.039 0.38 2.079 0.78 3.1 1.22" fill="#fff"/></g></g><g clip-path="url(#clipPath890)"><g clip-path="url(#clipPath898)" opacity=".2"><g transform="translate(424.64 387.67)"><path d="m0 0c-6.04-5.37-12.939-9.93-19.899-14.04-36.411-21.54-77.54-34.44-119.38-40.73-41.831-6.29-84.441-6.1-126.6-2.63-8.28 0.68-16.7 1.52-24.309 4.86-6.451 2.84-12.301 7.78-15.04 14.17 9.129 10.4 17.619 20.92 27.069 30.85 2.25 2.37 4.55 4.7 6.92 6.99 2 1.91 4.031 3.79 6.14 5.63 2.411 2.12 4.891 4.19 7.49 6.19 3.55 2.76 7.29 5.41 11.29 7.94 0.98 0.63 1.95 1.24 2.93 1.84 99.71 61.97 173.1 41.74 222.06 0 3.69-3.13 7.25-6.4 10.66-9.78 2.08-2.01 4.09-4.09 6.04-6.19 0.221-0.22 0.42-0.45 0.63-0.69 1.37-1.46 2.7-2.93 4-4.41"/></g></g><g transform="translate(428.58 397.61)"><path d="m0 0-335.47-1.53 5.074 7.603c2.44 3.656 6.544 5.851 10.94 5.851h303.56c3.981 0 7.748-1.803 10.245-4.904z" fill="#fff"/></g><g transform="translate(428.58 397.61)"><path d="m0 0-335.47-1.53 5.074 7.603c2.44 3.656 6.544 5.851 10.94 5.851h303.56c3.981 0 7.748-1.803 10.245-4.904z" fill="none" stroke="#1a2e35" stroke-linecap="round" stroke-linejoin="round" stroke-miterlimit="10"/></g><g transform="translate(266.69 260.64)"><path d="m0 0h-18.382c-18.861 0-34.151 15.29-34.151 34.151v18.382c0 18.861 15.29 34.151 34.152 34.151h18.38c18.862 0 34.152-15.29 34.152-34.151v-18.382c0-18.861-15.29-34.151-34.151-34.151" fill="#767676"/></g><g transform="translate(266.69 260.64)"><path d="m0 0h-18.382c-18.861 0-34.151 15.29-34.151 34.151v18.382c0 18.861 15.29 34.151 34.152 34.151h18.38c18.862 0 34.152-15.29 34.152-34.151v-18.382c0-18.861-15.29-34.151-34.151-34.151z" fill="none" stroke="#1a2e35" stroke-linecap="round" stroke-linejoin="round" stroke-miterlimit="10"/></g><g transform="translate(229.91 296.66)"><path d="m0 0v-12.323c0-3.867 3.134-7.002 7.001-7.002h42.266c3.848 0 6.965 3.105 7.001 6.953 0.053 5.544 0.35 12.372 0.35 12.372z" fill="#9a9a9a"/></g><g transform="translate(229.91 296.66)"><path d="m0 0v-12.323c0-3.867 3.134-7.002 7.001-7.002h42.266c3.848 0 6.965 3.105 7.001 6.953 0.053 5.544 0.35 12.372 0.35 12.372z" fill="none" stroke="#1a2e35" stroke-linecap="round" stroke-linejoin="round" stroke-miterlimit="10"/></g><g transform="translate(384.62 292.54)"><path d="m0 0h-247.2c-2.61 0-4.953 1.602-5.901 4.034l-38.13 97.859c-0.998 2.56 0.89 5.322 3.638 5.322h327.99c2.747 0 4.635-2.762 3.638-5.322l-38.131-97.859c-0.948-2.432-3.291-4.034-5.901-4.034" fill="#c0c0c0"/></g><g transform="translate(384.62 292.54)"><path d="m0 0h-247.2c-2.61 0-4.953 1.602-5.901 4.034l-38.13 97.859c-0.998 2.56 0.89 5.322 3.638 5.322h327.99c2.747 0 4.635-2.762 3.638-5.322l-38.131-97.859c-0.948-2.432-3.291-4.034-5.901-4.034z" fill="none" stroke="#1a2e35" stroke-linecap="round" stroke-linejoin="round" stroke-miterlimit="10"/></g><g transform="translate(386.45 301.07)"><path d="m0 0h-251.47l-34.603 92.486h320.51z" fill="#1a2e35"/></g><path d="m230.18 288.84h56.061v3.837h-56.061z" fill="#1a2e35"/><g transform="translate(349.72 305.05)"><path d="m0 0h-177.58c-0.976 0-1.906 0.443-2.079 0.992l-25.258 80.248c-0.284 0.9 0.504 1.633 1.761 1.633h228.73c1.257 0 2.045-0.733 1.762-1.633l-25.259-80.248c-0.172-0.549-1.102-0.992-2.078-0.992" fill="#5ae4a7"/></g><g transform="translate(349.06 306.86)"><path d="m0 0h-176.27l-21.464 70.511h219.2z" fill="#1a2e35"/></g><g transform="translate(198.1 359.87)"><path d="m0 0h-33.37c-0.823 0-1.365-0.445-1.209-0.991 0.156-0.545 0.945-0.986 1.765-0.986h33.177c0.819 0 1.404 0.441 1.306 0.986-0.098 0.546-0.845 0.991-1.669 0.991" fill="#fff"/></g><g transform="translate(199.21 353.78)"><path d="m0 0h-28.38c-0.809 0-1.349-0.429-1.205-0.957 0.143-0.525 0.911-0.95 1.716-0.95h28.219c0.804 0 1.381 0.425 1.287 0.95-0.095 0.528-0.828 0.957-1.637 0.957" fill="#fff"/></g><g clip-path="url(#clipPath968)" opacity=".5"><g transform="translate(200.29 347.9)"><path d="m0 0h-32.203c-0.796 0-1.322-0.414-1.177-0.923 0.145-0.508 0.903-0.918 1.694-0.918h32.023c0.791 0 1.359 0.41 1.268 0.918-0.091 0.509-0.81 0.923-1.605 0.923" fill="#fff"/></g></g><g transform="translate(201.33 342.22)"><path d="m0 0h-18.915c-0.782 0-1.317-0.4-1.196-0.892 0.121-0.49 0.848-0.887 1.626-0.887h18.811c0.777 0 1.337 0.397 1.249 0.887-0.089 0.492-0.794 0.892-1.575 0.892" fill="#fff"/></g><g transform="translate(202.34 336.74)"><path d="m0 0h-31.115c-0.769 0-1.281-0.386-1.146-0.862 0.136-0.474 0.864-0.857 1.629-0.857h30.947c0.765 0 1.316 0.383 1.231 0.857-0.086 0.476-0.777 0.862-1.546 0.862" fill="#fff"/></g><g transform="translate(203.31 331.43)"><path d="m0 0h-25.127c-0.755 0-1.268-0.374-1.144-0.833 0.122-0.459 0.831-0.83 1.582-0.83h24.994c0.752 0 1.295 0.371 1.212 0.83-0.082 0.459-0.762 0.833-1.517 0.833" fill="#fff"/></g><g transform="translate(204.25 326.3)"><path d="m0 0h-24.716c-0.743 0-1.249-0.361-1.13-0.807 0.119-0.443 0.814-0.802 1.554-0.802h24.587c0.74 0 1.275 0.359 1.195 0.802-0.079 0.446-0.747 0.807-1.49 0.807" fill="#fff"/></g><g transform="translate(205.16 321.34)"><path d="m0 0h-26.967c-0.732 0-1.228-0.35-1.109-0.781 0.119-0.429 0.805-0.777 1.533-0.777h26.829c0.727 0 1.255 0.348 1.178 0.777-0.077 0.431-0.733 0.781-1.464 0.781" fill="#fff"/></g><g clip-path="url(#clipPath1004)" opacity=".5"><g transform="translate(206.05 316.53)"><path d="m0 0h-17.419c-0.72 0-1.22-0.339-1.117-0.756 0.102-0.416 0.765-0.753 1.482-0.753h17.331c0.716 0 1.236 0.337 1.161 0.753-0.074 0.417-0.718 0.756-1.438 0.756" fill="#fff"/></g></g><g clip-path="url(#clipPath1020)" opacity=".5"><g transform="translate(196.94 366.19)"><path d="m0 0h-24.869c-0.839 0-1.4-0.461-1.253-1.028 0.147-0.565 0.941-1.022 1.776-1.022h24.722c0.834 0 1.429 0.457 1.328 1.022-0.102 0.567-0.865 1.028-1.704 1.028" fill="#fff"/></g></g><g transform="translate(195.73 372.74)"><path d="m0 0h-34.624c-0.855 0-1.411-0.479-1.243-1.067 0.167-0.586 0.992-1.06 1.841-1.06h34.417c0.849 0 1.453 0.474 1.348 1.06-0.105 0.588-0.884 1.067-1.739 1.067" fill="#fff"/></g><g transform="translate(206.9 311.87)"><path d="m0 0h-28.693c-0.708 0-1.189-0.329-1.074-0.733s0.78-0.73 1.485-0.73h28.551c0.704 0 1.217 0.326 1.146 0.73-0.073 0.404-0.707 0.733-1.415 0.733" fill="#fff"/></g><g clip-path="url(#clipPath1044)" opacity=".5"><g transform="translate(209.82 357.65)"><path d="m0 0h6.473l-0.324 2.471h-6.52z" fill="#fff"/></g></g><g clip-path="url(#clipPath1060)" opacity=".5"><g transform="translate(210.72 351.63)"><path d="m0 0h6.359l-0.313 2.384h-6.404z" fill="#fff"/></g></g><g clip-path="url(#clipPath1076)" opacity=".5"><g transform="translate(211.59 345.83)"><path d="m0 0h6.248l-0.302 2.301h-6.292z" fill="#fff"/></g></g><g clip-path="url(#clipPath1092)" opacity=".5"><g transform="translate(212.43 340.22)"><path d="m0 0h6.142l-0.292 2.223h-6.184z" fill="#fff"/></g></g><g clip-path="url(#clipPath1108)" opacity=".5"><g transform="translate(213.25 334.8)"><path d="m0 0h6.039l-0.282 2.149h-6.08z" fill="#fff"/></g></g><g clip-path="url(#clipPath1124)" opacity=".5"><g transform="translate(214.04 329.56)"><path d="m0 0h5.939l-0.272 2.079h-5.979z" fill="#fff"/></g></g><g clip-path="url(#clipPath1140)" opacity=".5"><g transform="translate(214.8 324.49)"><path d="m0 0h5.842l-0.263 2.012h-5.881z" fill="#fff"/></g></g><g clip-path="url(#clipPath1156)" opacity=".5"><g transform="translate(215.53 319.58)"><path d="m0 0h5.749l-0.255 1.948h-5.786z" fill="#fff"/></g></g><g clip-path="url(#clipPath1172)" opacity=".5"><g transform="translate(216.25 314.83)"><path d="m0 0h5.659l-0.247 1.887h-5.695z" fill="#fff"/></g></g><g clip-path="url(#clipPath1188)" opacity=".5"><g transform="translate(208.88 363.88)"><path d="m0 0h6.592l-0.336 2.563h-6.641z" fill="#fff"/></g></g><g clip-path="url(#clipPath1204)" opacity=".5"><g transform="translate(207.91 370.35)"><path d="m0 0h6.715l-0.349 2.659h-6.765z" fill="#fff"/></g></g><g clip-path="url(#clipPath1220)" opacity=".5"><g transform="translate(216.94 310.23)"><path d="m0 0h5.571l-0.239 1.828h-5.606z" fill="#fff"/></g></g><g transform="translate(251.05 320.56)"><path d="m0 0c-0.015 0.431 0.567 0.781 1.299 0.781h95.818c0.731 0 1.222-0.35 1.097-0.781-0.125-0.43-0.817-0.777-1.544-0.777h-95.327c-0.728 0-1.329 0.347-1.343 0.777" fill="#fff"/></g><g transform="translate(349.13 324.69)"><path d="m0 0h-53.055c-0.739 0-1.299 0.359-1.25 0.802 0.049 0.446 0.692 0.807 1.435 0.807h53.332c0.743 0 1.24-0.361 1.11-0.807-0.129-0.443-0.833-0.802-1.572-0.802" fill="#fff"/></g><g clip-path="url(#clipPath1244)" opacity=".5"><g transform="translate(283.48 324.69)"><path d="m0 0h-16.505c-0.739 0-1.333 0.359-1.326 0.802 7e-3 0.446 0.615 0.807 1.358 0.807h16.591c0.743 0 1.318-0.361 1.283-0.807-0.034-0.443-0.662-0.802-1.401-0.802" fill="#fff"/></g></g><g transform="translate(317.92 329.77)"><path d="m0 0h-74.841c-0.751 0-1.384 0.371-1.411 0.83-0.029 0.459 0.561 0.833 1.316 0.833h75.24c0.755 0 1.298-0.374 1.212-0.833s-0.765-0.83-1.516-0.83" fill="#fff"/></g><g clip-path="url(#clipPath1264)" opacity=".5"><g transform="translate(227.43 331.43)"><path d="m0 0h5.334c0.756 0 1.4-0.374 1.44-0.833 0.039-0.459-0.539-0.83-1.29-0.83h-5.307c-0.751 0-1.402 0.371-1.452 0.83-0.052 0.459 0.52 0.833 1.275 0.833" fill="#fff"/></g></g><g transform="translate(328.75 335.87)"><path d="m0 0c-0.101-0.474-0.802-0.857-1.566-0.857h-70.526c-0.763 0-1.389 0.383-1.398 0.857-9e-3 0.476 0.607 0.862 1.376 0.862h70.906c0.769 0 1.31-0.386 1.208-0.862" fill="#fff"/></g><g transform="translate(226.87 336.74)"><path d="m0 0h20.015c0.768 0 1.407-0.386 1.425-0.862 0.019-0.474-0.585-0.857-1.349-0.857h-19.907c-0.765 0-1.427 0.383-1.479 0.857-0.053 0.476 0.526 0.862 1.295 0.862" fill="#fff"/></g><g transform="translate(226.28 342.22)"><path d="m0 0h76.931c0.781 0 1.361-0.4 1.295-0.892-0.066-0.49-0.749-0.887-1.527-0.887h-76.51c-0.776 0-1.451 0.397-1.505 0.887-0.055 0.492 0.534 0.892 1.316 0.892" fill="#fff"/></g><g transform="translate(276.23 346.06)"><path d="m0 0c-0.79 0-1.414 0.411-1.393 0.918 0.022 0.509 0.684 0.923 1.479 0.923h40.595c0.795 0 1.367-0.414 1.279-0.923-0.088-0.507-0.801-0.918-1.592-0.918z" fill="#fff"/></g><g transform="translate(225.68 347.9)"><path d="m0 0h35.135c0.795 0 1.438-0.414 1.435-0.923-2e-3 -0.508-0.644-0.918-1.434-0.918h-34.94c-0.79 0-1.477 0.41-1.533 0.918-0.057 0.509 0.542 0.923 1.337 0.923" fill="#fff"/></g><g transform="translate(356.92 351.87)"><path d="m0 0h-96.7c-0.805 0-1.46 0.425-1.464 0.951-3e-3 0.528 0.65 0.956 1.46 0.956h97.252c0.808 0 1.34-0.428 1.186-0.956-0.153-0.526-0.929-0.951-1.734-0.951" fill="#fff"/></g><g transform="translate(358.65 357.89)"><path d="m0 0h-85.092c-0.819 0-1.469 0.44-1.451 0.985 0.018 0.547 0.7 0.992 1.524 0.992h85.586c0.825 0 1.363-0.445 1.204-0.992-0.16-0.545-0.952-0.985-1.771-0.985" fill="#fff"/></g><g clip-path="url(#clipPath1308)" opacity=".5"><g transform="translate(360.45 364.14)"><path d="m0 0h-17.818c-0.834 0-1.406 0.457-1.275 1.021 0.131 0.568 0.918 1.029 1.757 1.029h17.924c0.839 0 1.386-0.461 1.22-1.029-0.164-0.564-0.974-1.021-1.808-1.021" fill="#fff"/></g></g><g transform="translate(330.16 364.14)"><path d="m0 0h-65.43c-0.835 0-1.508 0.457-1.504 1.021 4e-3 0.568 0.687 1.029 1.527 1.029h65.816c0.839 0 1.426-0.461 1.31-1.029-0.115-0.564-0.885-1.021-1.719-1.021" fill="#fff"/></g><g transform="translate(229.02 316.53)"><path d="m0 0h60.422c0.719 0 1.269-0.339 1.228-0.756-0.042-0.416-0.655-0.753-1.372-0.753h-60.117c-0.716 0-1.334 0.337-1.38 0.753-0.046 0.417 0.499 0.756 1.219 0.756" fill="#fff"/></g><g transform="translate(229.52 311.87)"><path d="m0 0h92.834c0.708 0 1.213-0.329 1.127-0.733s-0.727-0.73-1.431-0.73h-92.374c-0.705 0-1.313 0.326-1.358 0.73s0.494 0.733 1.202 0.733" fill="#fff"/></g><g transform="translate(326.91 370.61)"><path d="m0 0h-47.261c-0.849 0-1.515 0.474-1.487 1.061 0.028 0.588 0.745 1.066 1.6 1.066h47.545c0.855 0 1.457-0.478 1.344-1.066-0.112-0.587-0.891-1.061-1.741-1.061" fill="#fff"/></g><g clip-path="url(#clipPath1340)" opacity=".5"><g transform="translate(266.25 370.61)"><path d="m0 0h-42.99c-0.849 0-1.591 0.474-1.656 1.061-0.065 0.588 0.574 1.066 1.429 1.066h43.249c0.856 0 1.539-0.478 1.528-1.066-0.012-0.587-0.709-1.061-1.56-1.061" fill="#fff"/></g></g><g clip-path="url(#clipPath1356)" opacity=".5"><g transform="translate(302.85 316.53)"><path d="m0 0c0.72 0 1.254-0.339 1.193-0.756-0.06-0.416-0.689-0.753-1.405-0.753h-4.67c-0.716 0-1.257 0.337-1.206 0.753 0.05 0.417 0.674 0.756 1.394 0.756z" fill="#fff"/></g></g><g clip-path="url(#clipPath1372)" opacity=".5"><g transform="translate(245.54 320.56)"><path d="m0 0c0.021-0.43-0.551-0.777-1.278-0.777h-6.363c-0.727 0-1.345 0.347-1.38 0.777-0.034 0.431 0.531 0.781 1.262 0.781h6.395c0.731 0 1.342-0.35 1.364-0.781" fill="#fff"/></g></g><g clip-path="url(#clipPath1388)" opacity=".5"><g transform="translate(322.29 341.33)"><path d="m0 0c-0.093-0.49-0.798-0.887-1.575-0.887h-7.438c-0.777 0-1.344 0.397-1.267 0.887 0.077 0.492 0.773 0.892 1.555 0.892h7.479c0.781 0 1.339-0.4 1.246-0.892" fill="#fff"/></g></g><g clip-path="url(#clipPath1404)" opacity=".5"><g transform="translate(345.5 336.74)"><path d="m0 0c0.769 0 1.287-0.386 1.159-0.862-0.128-0.474-0.849-0.857-1.614-0.857h-5.929c-0.764 0-1.291 0.383-1.177 0.857 0.116 0.476 0.832 0.862 1.6 0.862z" fill="#fff"/></g></g><g clip-path="url(#clipPath1420)" opacity=".5"><g transform="translate(248.51 351.87)"><path d="m0 0c-0.805 0-1.475 0.425-1.497 0.951-0.022 0.528 0.617 0.956 1.426 0.956h6.312c0.809 0 1.471-0.428 1.479-0.956 7e-3 -0.526-0.639-0.951-1.444-0.951z" fill="#fff"/></g></g><g transform="translate(162.57 382.66)"><path d="m0 0c0.489-1.638-0.456-2.95-2.105-2.95s-3.409 1.312-3.937 2.95c-0.535 1.66 0.395 3.021 2.083 3.021s3.463-1.361 3.959-3.021" fill="#fff"/></g><g transform="translate(170.71 382.61)"><path d="m0 0c0.437-1.637-0.551-2.949-2.199-2.949-1.649 0-3.366 1.312-3.842 2.949-0.481 1.659 0.492 3.02 2.18 3.02s3.419-1.361 3.861-3.02" fill="#fff"/></g><g transform="translate(178.94 382.66)"><path d="m0 0c0.383-1.638-0.647-2.95-2.296-2.95s-3.324 1.312-3.746 2.95c-0.428 1.66 0.59 3.021 2.278 3.021 1.689 0 3.376-1.361 3.764-3.021" fill="#fff"/></g><g clip-path="url(#clipPath1448)" opacity=".10001"><g transform="translate(100.38 393.56)"><path d="M 0,0 26.949,-72.028 59.458,0 Z" fill="#fff"/></g></g><g clip-path="url(#clipPath1464)" opacity=".10001"><g transform="translate(145.85 301.07)"><path d="m0 0 53.929 92.486h56.456l-79.371-92.486z" fill="#fff"/></g></g><g clip-path="url(#clipPath1480)" opacity=".10001"><g transform="translate(280.56 394.01)"><path d="m0 0-84.056-92.94h12.942l87.074 92.486z" fill="#fff"/></g></g><g clip-path="url(#clipPath1496)" opacity=".10001"><g transform="translate(297.16 301.07)"><path d="m0 0 92.384 92.486h13.036l-95.248-92.486z" fill="#fff"/></g></g></g><g clip-path="url(#clipPath1512)"><g transform="translate(171.9 260.93)"><path d="m0 0h-21.096c-2.739 0-4.959-2.22-4.959-4.959v-10.264c0-2.738 2.22-4.959 4.959-4.959h5.514l4.178-9.47 5.89 9.47h5.514c2.739 0 4.959 2.221 4.959 4.959v10.264c0 2.739-2.22 4.959-4.959 4.959" fill="#fff"/></g><g transform="translate(171.9 260.93)"><path d="m0 0h-21.096c-2.739 0-4.959-2.22-4.959-4.959v-10.264c0-2.738 2.22-4.959 4.959-4.959h5.514l4.178-9.47 5.89 9.47h5.514c2.739 0 4.959 2.221 4.959 4.959v10.264c0 2.739-2.22 4.959-4.959 4.959z" fill="none" stroke="#1a2e35" stroke-linecap="round" stroke-linejoin="round" stroke-miterlimit="10"/></g><path d="m158.64 252.97h1.606v-6.861h-1.606zm-0.219 2.094c0 0.54 0.437 0.964 1.028 0.964s1.028-0.398 1.028-0.925c0-0.565-0.424-1.002-1.028-1.002-0.591 0-1.028 0.424-1.028 0.963" fill="#1a2e35"/><g transform="translate(164.12 253.33)"><path d="m0 0v-0.411h1.889v-1.285h-1.838v-5.525h-1.606v5.525h-1.131v1.285h1.131v0.436c0 1.439 0.861 2.377 2.454 2.377 0.553 0 1.092-0.115 1.452-0.372l-0.45-1.208c-0.244 0.167-0.552 0.282-0.886 0.282-0.668 0-1.015-0.372-1.015-1.104" fill="#1a2e35"/></g><g transform="translate(236.12 259.5)"><path d="m0 0h-21.096c-2.739 0-4.959-2.22-4.959-4.959v-10.264c0-2.739 2.22-4.959 4.959-4.959h5.514l4.178-9.47 5.89 9.47h5.514c2.739 0 4.959 2.22 4.959 4.959v10.264c0 2.739-2.22 4.959-4.959 4.959" fill="#fff"/></g><g transform="translate(236.12 259.5)"><path d="m0 0h-21.096c-2.739 0-4.959-2.22-4.959-4.959v-10.264c0-2.739 2.22-4.959 4.959-4.959h5.514l4.178-9.47 5.89 9.47h5.514c2.739 0 4.959 2.22 4.959 4.959v10.264c0 2.739-2.22 4.959-4.959 4.959z" fill="none" stroke="#1a2e35" stroke-linecap="round" stroke-linejoin="round" stroke-miterlimit="10"/></g><g transform="translate(214.06 248.65)"><path d="m0 0h3.893c-0.129 0.99-0.887 1.671-1.94 1.671-1.041 0-1.799-0.669-1.953-1.671m5.396-1.066h-5.383c0.193-1.002 1.028-1.645 2.222-1.645 0.771 0 1.375 0.244 1.863 0.746l0.861-0.99c-0.617-0.732-1.58-1.117-2.762-1.117-2.3 0-3.79 1.477-3.79 3.52s1.503 3.508 3.546 3.508c2.004 0 3.468-1.401 3.468-3.547 0-0.128-0.012-0.321-0.025-0.475" fill="#1a2e35"/></g><path d="m221.02 254.2h1.606v-9.533h-1.606z" fill="#1a2e35"/><g transform="translate(223.95 245.35)"><path d="m0 0 0.617 1.221c0.603-0.399 1.529-0.681 2.389-0.681 1.015 0 1.439 0.282 1.439 0.758 0 1.31-4.239 0.077-4.239 2.814 0 1.297 1.169 2.145 3.019 2.145 0.912 0 1.952-0.218 2.569-0.591l-0.617-1.22c-0.655 0.385-1.31 0.513-1.965 0.513-0.977 0-1.439-0.321-1.439-0.771 0-1.387 4.24-0.153 4.24-2.838 0-1.286-1.182-2.121-3.11-2.121-1.143 0-2.286 0.334-2.903 0.771" fill="#1a2e35"/></g><g transform="translate(232.37 248.65)"><path d="m0 0h3.893c-0.129 0.99-0.887 1.671-1.94 1.671-1.041 0-1.799-0.669-1.953-1.671m5.396-1.066h-5.383c0.193-1.002 1.028-1.645 2.222-1.645 0.771 0 1.375 0.244 1.863 0.746l0.861-0.99c-0.617-0.732-1.58-1.117-2.762-1.117-2.3 0-3.79 1.477-3.79 3.52s1.503 3.508 3.546 3.508c2.004 0 3.468-1.401 3.468-3.547 0-0.128-0.012-0.321-0.025-0.475" fill="#1a2e35"/></g><g transform="translate(298.38 260.1)"><path d="m0 0h-21.097c-2.738 0-4.959-2.22-4.959-4.959v-10.264c0-2.738 2.221-4.959 4.959-4.959h5.515l4.178-9.47 5.89 9.47h5.514c2.738 0 4.959 2.221 4.959 4.959v10.264c0 2.739-2.221 4.959-4.959 4.959" fill="#fff"/></g><g transform="translate(298.38 260.1)"><path d="m0 0h-21.097c-2.738 0-4.959-2.22-4.959-4.959v-10.264c0-2.738 2.221-4.959 4.959-4.959h5.515l4.178-9.47 5.89 9.47h5.514c2.738 0 4.959 2.221 4.959 4.959v10.264c0 2.739-2.221 4.959-4.959 4.959z" fill="none" stroke="#1a2e35" stroke-linecap="round" stroke-linejoin="round" stroke-miterlimit="10"/></g><g transform="translate(282.12 252.5)"><path d="m0 0v-0.411h1.889v-1.285h-1.837v-5.525h-1.607v5.525h-1.13v1.285h1.13v0.436c0 1.439 0.862 2.377 2.454 2.377 0.553 0 1.093-0.115 1.453-0.372l-0.451-1.208c-0.243 0.167-0.551 0.282-0.885 0.282-0.668 0-1.016-0.372-1.016-1.104" fill="#1a2e35"/></g><g transform="translate(290.11 248.71)"><path d="m0 0c0 1.31-0.873 2.146-2.043 2.146-1.156 0-2.029-0.836-2.029-2.146 0-1.311 0.873-2.146 2.029-2.146 1.17 0 2.043 0.835 2.043 2.146m-5.691 0c0 2.055 1.542 3.507 3.648 3.507 2.133 0 3.662-1.452 3.662-3.507 0-2.056-1.529-3.521-3.662-3.521-2.106 0-3.648 1.465-3.648 3.521" fill="#1a2e35"/></g><g transform="translate(297.23 252.22)"><path d="m0 0v-1.529c-0.142 0.026-0.257 0.038-0.372 0.038-1.221 0-1.992-0.719-1.992-2.12v-3.327h-1.606v6.861h1.529v-1.003c0.462 0.72 1.297 1.08 2.441 1.08" fill="#1a2e35"/></g><g transform="translate(359.74 260.93)"><path d="m0 0h-21.097c-2.739 0-4.959-2.22-4.959-4.959v-10.264c0-2.738 2.22-4.959 4.959-4.959h5.514l4.179-9.47 5.889 9.47h5.515c2.738 0 4.959 2.221 4.959 4.959v10.264c0 2.739-2.221 4.959-4.959 4.959" fill="#fff"/></g><g transform="translate(359.74 260.93)"><path d="m0 0h-21.097c-2.739 0-4.959-2.22-4.959-4.959v-10.264c0-2.738 2.22-4.959 4.959-4.959h5.514l4.179-9.47 5.889 9.47h5.515c2.738 0 4.959 2.221 4.959 4.959v10.264c0 2.739-2.221 4.959-4.959 4.959z" fill="none" stroke="#1a2e35" stroke-linecap="round" stroke-linejoin="round" stroke-miterlimit="10"/></g><path d="m346.45 250.2h5.923v-1.285h-5.923zm0 3.109h5.923v-1.285h-5.923z" fill="#1a2e35"/><g transform="translate(204.06 272.81)"><path d="m0 0h-21.097c-2.738 0-4.958-2.22-4.958-4.958v-10.265c0-2.738 2.22-4.959 4.958-4.959h5.514l4.179-9.469 5.89 9.469h5.514c2.739 0 4.959 2.221 4.959 4.959v10.265c0 2.738-2.22 4.958-4.959 4.958" fill="#fff"/></g><g transform="translate(204.06 272.81)"><path d="m0 0h-21.097c-2.738 0-4.958-2.22-4.958-4.958v-10.265c0-2.738 2.22-4.959 4.958-4.959h5.514l4.179-9.469 5.89 9.469h5.514c2.739 0 4.959 2.221 4.959 4.959v10.265c0 2.738-2.22 4.958-4.959 4.958z" fill="none" stroke="#1a2e35" stroke-linecap="round" stroke-linejoin="round" stroke-miterlimit="10"/></g><g transform="translate(188.55 268.55)"><path d="m0 0h3.071v-1.285h-1.465v-9.456h1.465v-1.285h-3.071z" fill="#1a2e35"/></g><g transform="translate(195.6 256.52)"><path d="m0 0v1.285h1.452v9.456h-1.452v1.285h3.058v-12.026z" fill="#1a2e35"/></g><g transform="translate(266.78 273.86)"><path d="m0 0h-21.096c-2.739 0-4.959-2.22-4.959-4.959v-10.264c0-2.738 2.22-4.959 4.959-4.959h5.514l4.178-9.47 5.89 9.47h5.514c2.739 0 4.959 2.221 4.959 4.959v10.264c0 2.739-2.22 4.959-4.959 4.959" fill="#fff"/></g><g transform="translate(266.78 273.86)"><path d="m0 0h-21.096c-2.739 0-4.959-2.22-4.959-4.959v-10.264c0-2.738 2.22-4.959 4.959-4.959h5.514l4.178-9.47 5.89 9.47h5.514c2.739 0 4.959 2.221 4.959 4.959v10.264c0 2.739-2.22 4.959-4.959 4.959z" fill="none" stroke="#1a2e35" stroke-linecap="round" stroke-linejoin="round" stroke-miterlimit="10"/></g><g transform="translate(251.94 263.62)"><path d="m0 0c0.514-0.167 0.758-0.514 0.758-1.311v-2.441c0-0.617 0.308-0.976 0.951-0.976h0.27v-1.285h-0.643c-1.451 0-2.184 0.732-2.184 2.094v2.647c0 0.424-0.218 0.617-0.578 0.617h-0.424v1.31h0.424c0.36 0 0.578 0.193 0.578 0.617v2.646c0 1.362 0.733 2.095 2.184 2.095h0.643v-1.285h-0.27c-0.643 0-0.951-0.36-0.951-0.977v-2.44c0-0.797-0.244-1.144-0.758-1.311" fill="#1a2e35"/></g><g transform="translate(261.74 264.28)"><path d="m0 0v-1.311h-0.437c-0.346 0-0.565-0.192-0.565-0.616v-2.647c0-1.362-0.745-2.094-2.197-2.094h-0.642v1.285h0.27c0.655 0 0.964 0.359 0.964 0.976v2.441c0 0.797 0.23 1.144 0.745 1.311-0.515 0.167-0.745 0.513-0.745 1.31v2.441c0 0.617-0.309 0.977-0.964 0.977h-0.27v1.284h0.642c1.452 0 2.197-0.732 2.197-2.094v-2.646c0-0.425 0.219-0.617 0.565-0.617z" fill="#1a2e35"/></g><g transform="translate(328.84 275.94)"><path d="m0 0h-21.096c-2.739 0-4.959-2.22-4.959-4.958v-10.265c0-2.738 2.22-4.959 4.959-4.959h5.514l4.178-9.47 5.89 9.47h5.514c2.739 0 4.959 2.221 4.959 4.959v10.265c0 2.738-2.22 4.958-4.959 4.958" fill="#fff"/></g><g transform="translate(328.84 275.94)"><path d="m0 0h-21.096c-2.739 0-4.959-2.22-4.959-4.958v-10.265c0-2.738 2.22-4.959 4.959-4.959h5.514l4.178-9.47 5.89 9.47h5.514c2.739 0 4.959 2.221 4.959 4.959v10.265c0 2.738-2.22 4.958-4.959 4.958z" fill="none" stroke="#1a2e35" stroke-linecap="round" stroke-linejoin="round" stroke-miterlimit="10"/></g><g transform="translate(319.56 263.45)"><path d="m0 0c0-0.283-0.064-0.514-0.296-1.105l-0.655-1.812h-1.04l0.513 1.966c-0.359 0.154-0.603 0.488-0.603 0.951 0 0.642 0.449 1.066 1.04 1.066 0.604 0 1.041-0.437 1.041-1.066m-2.107 4.895c0 0.642 0.475 1.066 1.053 1.066s1.054-0.424 1.054-1.066c0-0.617-0.476-1.066-1.054-1.066s-1.053 0.449-1.053 1.066" fill="#1a2e35"/></g><g transform="translate(246.36 96.501)"><path d="m0 0h21.097c2.738 0 4.959 2.221 4.959 4.959v10.264c0 2.739-2.221 4.959-4.959 4.959h-5.515l-1.609 9.47-8.459-9.47h-5.514c-2.739 0-4.959-2.22-4.959-4.959v-10.264c0-2.738 2.22-4.959 4.959-4.959" fill="#fff"/></g><g transform="translate(246.36 96.501)"><path d="m0 0h21.097c2.738 0 4.959 2.221 4.959 4.959v10.264c0 2.739-2.221 4.959-4.959 4.959h-5.515l-1.609 9.47-8.459-9.47h-5.514c-2.739 0-4.959-2.22-4.959-4.959v-10.264c0-2.738 2.22-4.959 4.959-4.959z" fill="none" stroke="#1a2e35" stroke-linecap="round" stroke-linejoin="round" stroke-miterlimit="10"/></g><g transform="translate(253.77 108.7)"><path d="m0 0-4.432-1.657 4.432-1.657v-1.337l-5.923 2.299v1.388l5.923 2.3z" fill="#1a2e35"/></g><g transform="translate(258.45 113.37)"><path d="m0 0h1.438l-4.239-12.104h-1.439z" fill="#1a2e35"/></g><g transform="translate(266.11 107.74)"><path d="m0 0v-1.388l-5.923-2.3v1.337l4.433 1.658-4.433 1.657v1.336z" fill="#1a2e35"/></g><g transform="translate(112.24 171.25)"><path d="m0 0h21.096c2.739 0 4.959 2.221 4.959 4.96v10.264c0 2.738-2.22 4.959-4.959 4.959h-5.513l1.201 9.469-11.27-9.469h-5.514c-2.739 0-4.959-2.221-4.959-4.959v-10.264c0-2.739 2.22-4.96 4.959-4.96" fill="#fff"/></g><g transform="translate(112.24 171.25)"><path d="m0 0h21.096c2.739 0 4.959 2.221 4.959 4.96v10.264c0 2.738-2.22 4.959-4.959 4.959h-5.513l1.201 9.469-11.27-9.469h-5.514c-2.739 0-4.959-2.221-4.959-4.959v-10.264c0-2.739 2.22-4.96 4.959-4.96z" fill="none" stroke="#1a2e35" stroke-linecap="round" stroke-linejoin="round" stroke-miterlimit="10"/></g><g transform="translate(118.58 185.84)"><path d="m0 0h1.901l-0.321-6.013h-1.272zm-0.09-8.081c0 0.553 0.437 0.989 1.041 0.989 0.591 0 1.014-0.436 1.014-0.989s-0.423-1.002-1.014-1.002c-0.604 0-1.041 0.449-1.041 1.002" fill="#1a2e35"/></g><path d="m122.14 180.43h5.923v-1.285h-5.923zm0 3.108h5.923v-1.284h-5.923z" fill="#1a2e35"/></g><g clip-path="url(#clipPath1664)"><g transform="translate(450.03 182.88)"><path d="m0 0c0-4.12-0.342-8.111-0.974-11.867-2.899-17.303-11.995-29.929-22.759-29.929-0.963 0-1.926 0.107-2.858 0.3-11.749 2.493-20.865 20.116-20.865 41.496 0 23.081 10.625 31.245 23.723 31.245 13.108 0 23.733-8.164 23.733-31.245" fill="#fff"/></g></g><g clip-path="url(#clipPath1676)"><g transform="translate(441.43 182.62)"><path d="m0 0c0.883-12.377-1.245-24.82-4.812-36.705 8.939 7.335 13.051 18.875 16.767 29.825 2.698 7.952 5.433 16.15 4.946 24.533-0.486 8.383-4.979 17.103-12.845 20.041-3.844 1.436-8.319 1.33-12.123-0.196-6.592-2.644-2.983-4.792-0.216-9.525 4.954-8.475 7.587-18.217 8.283-27.973" fill="#5ae4a7"/></g><g clip-path="url(#clipPath1688)" opacity=".5"><g transform="translate(441.43 182.62)"><path d="m0 0c0.883-12.377-1.245-24.82-4.812-36.705 8.939 7.335 13.051 18.875 16.767 29.825 2.698 7.952 5.433 16.15 4.946 24.533-0.486 8.383-4.979 17.103-12.845 20.041-3.844 1.436-8.319 1.33-12.123-0.196-6.592-2.644-2.983-4.792-0.216-9.525 4.954-8.475 7.587-18.217 8.283-27.973" fill="#fff"/></g></g></g><g clip-path="url(#clipPath1704)"><g transform="translate(450.03 182.88)"><path d="m0 0c0-4.12-0.342-8.111-0.974-11.867-2.899-17.303-11.995-29.929-22.759-29.929-0.963 0-1.926 0.107-2.858 0.3-11.749 2.493-20.865 20.116-20.865 41.496 0 23.081 10.625 31.245 23.723 31.245 13.108 0 23.733-8.164 23.733-31.245z" fill="none" stroke="#1a2e35" stroke-miterlimit="10"/></g><g transform="translate(439.05 161.65)"><path d="m0 0c-1.585-5.325-4.214-10.337-7.782-14.6" fill="#fff" stroke="#1a2e35" stroke-miterlimit="10"/></g><g transform="translate(439.8 164.55)"><path d="m0 0c-0.125-0.564-0.263-1.127-0.411-1.686" fill="none" stroke="#1a2e35" stroke-miterlimit="10"/></g><g transform="translate(439.74 182.94)"><path d="m0 0c1.265-5.324 1.39-10.891 0.473-16.282" fill="#fff" stroke="#1a2e35" stroke-miterlimit="10"/></g><g transform="translate(402.57 182.88)"><path d="m0 0s26.969 10.663 47.453 0" fill="none" stroke="#1a2e35" stroke-miterlimit="10"/></g><g transform="translate(426.3 214.13)"><path d="m0 0s2.701-10.002 3.013-26.264" fill="#fff" stroke="#1a2e35" stroke-miterlimit="10"/></g><g transform="translate(430.07 201.96)"><path d="m0 0c0.346-3.108-0.192-5.758-1.203-5.918-1.01-0.159-2.11 2.231-2.456 5.339-0.347 3.108 0.191 5.758 1.202 5.918 1.01 0.159 2.11-2.232 2.457-5.339" fill="#c0c0c0"/></g><g transform="translate(430.07 201.96)"><path d="m0 0c0.346-3.108-0.192-5.758-1.203-5.918-1.01-0.159-2.11 2.231-2.456 5.339-0.347 3.108 0.191 5.758 1.202 5.918 1.01 0.159 2.11-2.232 2.457-5.339z" fill="none" stroke="#1a2e35" stroke-linecap="round" stroke-linejoin="round" stroke-miterlimit="10"/></g><g transform="translate(415.66 133.09)"><path d="m0 0h-31.62c-3.941 0-7.18 2.92-7.691 6.71-0.069 0.34-0.089 0.7-0.089 1.07v74.59c0 0.36 0.02 0.72 0.089 1.08 0.511 3.79 3.75 6.7 7.691 6.7h89.72c1.36 0 2.629-0.35 3.73-0.96" fill="none" stroke="#1a2e35" stroke-miterlimit="10"/></g></g></g></svg>
